<?xml version="1.0" encoding="UTF-8" standalone="no"?>
<svg
   height="377.80mm"
   viewBox="0.0 0.0 880.10 377.80"
   width="880.10mm"
   version="1.1"
   id="svg1296"
   sodipodi:docname="box_sketch_6mm.svg"
   inkscape:version="1.2 (dc2aedaf03, 2022-05-15)"
   xmlns:inkscape="http://www.inkscape.org/namespaces/inkscape"
   xmlns:sodipodi="http://sodipodi.sourceforge.net/DTD/sodipodi-0.dtd"
   xmlns="http://www.w3.org/2000/svg"
   xmlns:svg="http://www.w3.org/2000/svg"
   xmlns:rdf="http://www.w3.org/1999/02/22-rdf-syntax-ns#"
   xmlns:cc="http://creativecommons.org/ns#"
   xmlns:dc="http://purl.org/dc/elements/1.1/">
  <defs
     id="defs1300" />
  <sodipodi:namedview
     id="namedview1298"
     pagecolor="#ffffff"
     bordercolor="#000000"
     borderopacity="0.25"
     inkscape:showpageshadow="2"
     inkscape:pageopacity="0.0"
     inkscape:pagecheckerboard="0"
     inkscape:deskcolor="#d1d1d1"
     inkscape:document-units="mm"
     showgrid="false"
     inkscape:zoom="0.45364875"
     inkscape:cx="1662.0789"
     inkscape:cy="714.20896"
     inkscape:window-width="1920"
     inkscape:window-height="986"
     inkscape:window-x="-11"
     inkscape:window-y="-11"
     inkscape:window-maximized="1"
     inkscape:current-layer="svg1296" />
  <!--
TwoPiece - A two piece box where top slips over the bottom half to form 
       the enclosure.
    



Set *hi* larger than *h* to leave gap between the inner and outer shell. This can be used to make opening the box easier. Set *hi* smaller to only have a small inner ridge that will allow the content to be momre visible after opening.

![Bottom view](static/samples/TwoPiece2.jpg)



Created with Boxes.py (https://festi.info/boxes.py)
Creation date: 2022-07-22 12:00:03
Command line (remove spaces between dashes): boxes TwoPiece - -FingerJoint_angle=90.0 - -FingerJoint_style=rectangular - -FingerJoint_surroundingspaces=2.0 - -FingerJoint_edge_width=1.0 - -FingerJoint_extra_length=0.0 - -FingerJoint_finger=2.0 - -FingerJoint_play=0.0 - -FingerJoint_space=2.0 - -FingerJoint_width=1.0 - -x=175.0 - -y=250.0 - -h=50.0 - -hi=0.0 - -outside=0 - -outside=1 - -play=0.15 - -thickness=6.0 - -format=svg - -tabs=0.0 - -debug=0 - -labels=0 - -labels=1 - -reference=100 - -inner_corners=loop - -burn=0.1
Url: http://www.festi.info/TwoPiece?FingerJoint_angle=90.0&FingerJoint_style=rectangular&FingerJoint_surroundingspaces=2.0&FingerJoint_edge_width=1.0&FingerJoint_extra_length=0.0&FingerJoint_finger=2.0&FingerJoint_play=0.0&FingerJoint_space=2.0&FingerJoint_width=1.0&x=175.0&y=250.0&h=50.0&hi=0.0&outside=0&outside=1&play=0.15&thickness=6.0&format=svg&tabs=0.0&debug=0&labels=0&labels=1&reference=100&inner_corners=loop&burn=0.1&render=1
SettingsUrl: http://www.festi.info/TwoPiece?FingerJoint_angle=90.0&FingerJoint_style=rectangular&FingerJoint_surroundingspaces=2.0&FingerJoint_edge_width=1.0&FingerJoint_extra_length=0.0&FingerJoint_finger=2.0&FingerJoint_play=0.0&FingerJoint_space=2.0&FingerJoint_width=1.0&x=175.0&y=250.0&h=50.0&hi=0.0&outside=0&outside=1&play=0.15&thickness=6.0&format=svg&tabs=0.0&debug=0&labels=0&labels=1&reference=100&inner_corners=loop&burn=0.1
-->
  <title
     id="title1205">TwoPiece</title>
  <metadata
     id="metadata1207">
    <rdf:RDF>
      <cc:Work>
        <dc:title>Box - TwoPiece</dc:title>
        <dc:date>2022-07-22 12:00:03</dc:date>
        <dc:source>http://www.festi.info/TwoPiece?FingerJoint_angle=90.0&amp;FingerJoint_style=rectangular&amp;FingerJoint_surroundingspaces=2.0&amp;FingerJoint_edge_width=1.0&amp;FingerJoint_extra_length=0.0&amp;FingerJoint_finger=2.0&amp;FingerJoint_play=0.0&amp;FingerJoint_space=2.0&amp;FingerJoint_width=1.0&amp;x=175.0&amp;y=250.0&amp;h=50.0&amp;hi=0.0&amp;outside=0&amp;outside=1&amp;play=0.15&amp;thickness=6.0&amp;format=svg&amp;tabs=0.0&amp;debug=0&amp;labels=0&amp;labels=1&amp;reference=100&amp;inner_corners=loop&amp;burn=0.1&amp;render=1</dc:source>
        <dc:description>A two piece box where top slips over the bottom half to form 
       the enclosure.
    


Set *hi* larger than *h* to leave gap between the inner and outer shell. This can be used to make opening the box easier. Set *hi* smaller to only have a small inner ridge that will allow the content to be momre visible after opening.

![Bottom view](static/samples/TwoPiece2.jpg)


Created with Boxes.py (https://festi.info/boxes.py)
Command line: boxes TwoPiece --FingerJoint_angle=90.0 --FingerJoint_style=rectangular --FingerJoint_surroundingspaces=2.0 --FingerJoint_edge_width=1.0 --FingerJoint_extra_length=0.0 --FingerJoint_finger=2.0 --FingerJoint_play=0.0 --FingerJoint_space=2.0 --FingerJoint_width=1.0 --x=175.0 --y=250.0 --h=50.0 --hi=0.0 --outside=0 --outside=1 --play=0.15 --thickness=6.0 --format=svg --tabs=0.0 --debug=0 --labels=0 --labels=1 --reference=100 --inner_corners=loop --burn=0.1
Url: http://www.festi.info/TwoPiece?FingerJoint_angle=90.0&amp;FingerJoint_style=rectangular&amp;FingerJoint_surroundingspaces=2.0&amp;FingerJoint_edge_width=1.0&amp;FingerJoint_extra_length=0.0&amp;FingerJoint_finger=2.0&amp;FingerJoint_play=0.0&amp;FingerJoint_space=2.0&amp;FingerJoint_width=1.0&amp;x=175.0&amp;y=250.0&amp;h=50.0&amp;hi=0.0&amp;outside=0&amp;outside=1&amp;play=0.15&amp;thickness=6.0&amp;format=svg&amp;tabs=0.0&amp;debug=0&amp;labels=0&amp;labels=1&amp;reference=100&amp;inner_corners=loop&amp;burn=0.1&amp;render=1
SettingsUrl: http://www.festi.info/TwoPiece?FingerJoint_angle=90.0&amp;FingerJoint_style=rectangular&amp;FingerJoint_surroundingspaces=2.0&amp;FingerJoint_edge_width=1.0&amp;FingerJoint_extra_length=0.0&amp;FingerJoint_finger=2.0&amp;FingerJoint_play=0.0&amp;FingerJoint_space=2.0&amp;FingerJoint_width=1.0&amp;x=175.0&amp;y=250.0&amp;h=50.0&amp;hi=0.0&amp;outside=0&amp;outside=1&amp;play=0.15&amp;thickness=6.0&amp;format=svg&amp;tabs=0.0&amp;debug=0&amp;labels=0&amp;labels=1&amp;reference=100&amp;inner_corners=loop&amp;burn=0.1
</dc:description>
      </cc:Work>
    </rdf:RDF>
  </metadata>
  <g
     id="p-0"
     style="fill:none;stroke-linecap:round;stroke-linejoin:round;">
    <path
       d="M 10.400 367.800 H 110.400 V 357.800 H 10.400 V 367.800 Z"
       stroke="rgb(0,0,0)"
       stroke-width="0.20"
       id="path1209" />
    <text
       dominant-baseline="hanging"
       font-size="8px"
       style="font-family: sans-serif ; font-weight: normal; font-style: normal; fill: rgb(255,0,0)"
       text-anchor="middle"
       transform="matrix( 1.000 0.000 0.000 1.000 60.400 358.800 )"
       id="text1211">100mm, burn:0.10mm</text>
  </g>
  <g
     id="p-1"
     style="fill:none;stroke-linecap:round;stroke-linejoin:round;">
    <path
       d="M 16.400 348.600 H 36.900 C 37.000 348.600 36.900 348.500 36.900 348.600 V 354.500 C 36.900 354.555 36.945 354.600 37.000 354.600 H 49.000 C 49.055 354.600 49.100 354.555 49.100 354.500 V 348.600 C 49.100 348.500 49.000 348.600 49.100 348.600 H 60.900 C 61.000 348.600 60.900 348.500 60.900 348.600 V 354.500 C 60.900 354.555 60.945 354.600 61.000 354.600 H 73.000 C 73.055 354.600 73.100 354.555 73.100 354.500 V 348.600 C 73.100 348.500 73.000 348.600 73.100 348.600 H 84.900 C 85.000 348.600 84.900 348.500 84.900 348.600 V 354.500 C 84.900 354.555 84.945 354.600 85.000 354.600 H 97.000 C 97.055 354.600 97.100 354.555 97.100 354.500 V 348.600 C 97.100 348.500 97.000 348.600 97.100 348.600 H 108.900 C 109.000 348.600 108.900 348.500 108.900 348.600 V 354.500 C 108.900 354.555 108.945 354.600 109.000 354.600 H 121.000 C 121.055 354.600 121.100 354.555 121.100 354.500 V 348.600 C 121.100 348.500 121.000 348.600 121.100 348.600 H 132.900 C 133.000 348.600 132.900 348.500 132.900 348.600 V 354.500 C 132.900 354.555 132.945 354.600 133.000 354.600 H 145.000 C 145.055 354.600 145.100 354.555 145.100 354.500 V 348.600 C 145.100 348.500 145.000 348.600 145.100 348.600 H 165.600 H 171.600 C 171.655 348.600 171.700 348.555 171.700 348.500 V 335.500 C 171.700 335.445 171.655 335.400 171.600 335.400 H 165.700 C 165.600 335.400 165.700 335.500 165.700 335.400 V 323.600 C 165.700 323.500 165.600 323.600 165.700 323.600 H 171.600 C 171.655 323.600 171.700 323.555 171.700 323.500 V 310.500 C 171.700 310.445 171.655 310.400 171.600 310.400 H 165.600 H 16.400 H 10.400 C 10.345 310.400 10.300 310.445 10.300 310.500 V 323.500 C 10.300 323.555 10.345 323.600 10.400 323.600 H 16.300 C 16.400 323.600 16.300 323.500 16.300 323.600 V 335.400 C 16.300 335.500 16.400 335.400 16.300 335.400 H 10.400 C 10.345 335.400 10.300 335.445 10.300 335.500 V 348.500 C 10.300 348.555 10.345 348.600 10.400 348.600 H 16.400 Z"
       stroke="rgb(0,0,0)"
       stroke-width="0.20"
       id="path1214" />
  </g>
  <g
     id="p-2"
     style="fill:none;stroke-linecap:round;stroke-linejoin:round;">
    <path
       d="M 180.800 348.600 H 202.800 C 202.900 348.600 202.800 348.500 202.800 348.600 V 354.500 C 202.800 354.555 202.845 354.600 202.900 354.600 H 214.900 C 214.955 354.600 215.000 354.555 215.000 354.500 V 348.600 C 215.000 348.500 214.900 348.600 215.000 348.600 H 226.800 C 226.900 348.600 226.800 348.500 226.800 348.600 V 354.500 C 226.800 354.555 226.845 354.600 226.900 354.600 H 238.900 C 238.955 354.600 239.000 354.555 239.000 354.500 V 348.600 C 239.000 348.500 238.900 348.600 239.000 348.600 H 250.800 C 250.900 348.600 250.800 348.500 250.800 348.600 V 354.500 C 250.800 354.555 250.845 354.600 250.900 354.600 H 262.900 C 262.955 354.600 263.000 354.555 263.000 354.500 V 348.600 C 263.000 348.500 262.900 348.600 263.000 348.600 H 274.800 C 274.900 348.600 274.800 348.500 274.800 348.600 V 354.500 C 274.800 354.555 274.845 354.600 274.900 354.600 H 286.900 C 286.955 354.600 287.000 354.555 287.000 354.500 V 348.600 C 287.000 348.500 286.900 348.600 287.000 348.600 H 298.800 C 298.900 348.600 298.800 348.500 298.800 348.600 V 354.500 C 298.800 354.555 298.845 354.600 298.900 354.600 H 310.900 C 310.955 354.600 311.000 354.555 311.000 354.500 V 348.600 C 311.000 348.500 310.900 348.600 311.000 348.600 H 322.800 C 322.900 348.600 322.800 348.500 322.800 348.600 V 354.500 C 322.800 354.555 322.845 354.600 322.900 354.600 H 334.900 C 334.955 354.600 335.000 354.555 335.000 354.500 V 348.600 C 335.000 348.500 334.900 348.600 335.000 348.600 H 346.800 C 346.900 348.600 346.800 348.500 346.800 348.600 V 354.500 C 346.800 354.555 346.845 354.600 346.900 354.600 H 358.900 C 358.955 354.600 359.000 354.555 359.000 354.500 V 348.600 C 359.000 348.500 358.900 348.600 359.000 348.600 H 370.800 C 370.900 348.600 370.800 348.500 370.800 348.600 V 354.500 C 370.800 354.555 370.845 354.600 370.900 354.600 H 382.900 C 382.955 354.600 383.000 354.555 383.000 354.500 V 348.600 C 383.000 348.500 382.900 348.600 383.000 348.600 H 405.000 C 405.055 348.600 405.100 348.555 405.100 348.500 V 335.600 C 405.100 335.500 405.000 335.600 405.100 335.600 H 411.000 C 411.055 335.600 411.100 335.555 411.100 335.500 V 323.500 C 411.100 323.445 411.055 323.400 411.000 323.400 H 405.100 C 405.000 323.400 405.100 323.500 405.100 323.400 V 310.500 C 405.100 310.445 405.055 310.400 405.000 310.400 H 180.800 C 180.745 310.400 180.700 310.445 180.700 310.500 V 323.400 C 180.700 323.500 180.800 323.400 180.700 323.400 H 174.800 C 174.745 323.400 174.700 323.445 174.700 323.500 V 335.500 C 174.700 335.555 174.745 335.600 174.800 335.600 H 180.700 C 180.800 335.600 180.700 335.500 180.700 335.600 V 348.500 C 180.700 348.555 180.745 348.600 180.800 348.600 Z"
       stroke="rgb(0,0,0)"
       stroke-width="0.20"
       id="path1217" />
  </g>
  <g
     id="p-3"
     style="fill:none;stroke-linecap:round;stroke-linejoin:round;">
    <path
       d="M 420.200 348.600 H 440.700 C 440.800 348.600 440.700 348.500 440.700 348.600 V 354.500 C 440.700 354.555 440.745 354.600 440.800 354.600 H 452.800 C 452.855 354.600 452.900 354.555 452.900 354.500 V 348.600 C 452.900 348.500 452.800 348.600 452.900 348.600 H 464.700 C 464.800 348.600 464.700 348.500 464.700 348.600 V 354.500 C 464.700 354.555 464.745 354.600 464.800 354.600 H 476.800 C 476.855 354.600 476.900 354.555 476.900 354.500 V 348.600 C 476.900 348.500 476.800 348.600 476.900 348.600 H 488.700 C 488.800 348.600 488.700 348.500 488.700 348.600 V 354.500 C 488.700 354.555 488.745 354.600 488.800 354.600 H 500.800 C 500.855 354.600 500.900 354.555 500.900 354.500 V 348.600 C 500.900 348.500 500.800 348.600 500.900 348.600 H 512.700 C 512.800 348.600 512.700 348.500 512.700 348.600 V 354.500 C 512.700 354.555 512.745 354.600 512.800 354.600 H 524.800 C 524.855 354.600 524.900 354.555 524.900 354.500 V 348.600 C 524.900 348.500 524.800 348.600 524.900 348.600 H 536.700 C 536.800 348.600 536.700 348.500 536.700 348.600 V 354.500 C 536.700 354.555 536.745 354.600 536.800 354.600 H 548.800 C 548.855 354.600 548.900 354.555 548.900 354.500 V 348.600 C 548.900 348.500 548.800 348.600 548.900 348.600 H 569.400 H 575.400 C 575.455 348.600 575.500 348.555 575.500 348.500 V 335.500 C 575.500 335.445 575.455 335.400 575.400 335.400 H 569.500 C 569.400 335.400 569.500 335.500 569.500 335.400 V 323.600 C 569.500 323.500 569.400 323.600 569.500 323.600 H 575.400 C 575.455 323.600 575.500 323.555 575.500 323.500 V 310.500 C 575.500 310.445 575.455 310.400 575.400 310.400 H 569.400 H 420.200 H 414.200 C 414.145 310.400 414.100 310.445 414.100 310.500 V 323.500 C 414.100 323.555 414.145 323.600 414.200 323.600 H 420.100 C 420.200 323.600 420.100 323.500 420.100 323.600 V 335.400 C 420.100 335.500 420.200 335.400 420.100 335.400 H 414.200 C 414.145 335.400 414.100 335.445 414.100 335.500 V 348.500 C 414.100 348.555 414.145 348.600 414.200 348.600 H 420.200 Z"
       stroke="rgb(0,0,0)"
       stroke-width="0.20"
       id="path1220" />
  </g>
  <g
     id="p-4"
     style="fill:none;stroke-linecap:round;stroke-linejoin:round;">
    <path
       d="M 584.600 348.600 H 606.600 C 606.700 348.600 606.600 348.500 606.600 348.600 V 354.500 C 606.600 354.555 606.645 354.600 606.700 354.600 H 618.700 C 618.755 354.600 618.800 354.555 618.800 354.500 V 348.600 C 618.800 348.500 618.700 348.600 618.800 348.600 H 630.600 C 630.700 348.600 630.600 348.500 630.600 348.600 V 354.500 C 630.600 354.555 630.645 354.600 630.700 354.600 H 642.700 C 642.755 354.600 642.800 354.555 642.800 354.500 V 348.600 C 642.800 348.500 642.700 348.600 642.800 348.600 H 654.600 C 654.700 348.600 654.600 348.500 654.600 348.600 V 354.500 C 654.600 354.555 654.645 354.600 654.700 354.600 H 666.700 C 666.755 354.600 666.800 354.555 666.800 354.500 V 348.600 C 666.800 348.500 666.700 348.600 666.800 348.600 H 678.600 C 678.700 348.600 678.600 348.500 678.600 348.600 V 354.500 C 678.600 354.555 678.645 354.600 678.700 354.600 H 690.700 C 690.755 354.600 690.800 354.555 690.800 354.500 V 348.600 C 690.800 348.500 690.700 348.600 690.800 348.600 H 702.600 C 702.700 348.600 702.600 348.500 702.600 348.600 V 354.500 C 702.600 354.555 702.645 354.600 702.700 354.600 H 714.700 C 714.755 354.600 714.800 354.555 714.800 354.500 V 348.600 C 714.800 348.500 714.700 348.600 714.800 348.600 H 726.600 C 726.700 348.600 726.600 348.500 726.600 348.600 V 354.500 C 726.600 354.555 726.645 354.600 726.700 354.600 H 738.700 C 738.755 354.600 738.800 354.555 738.800 354.500 V 348.600 C 738.800 348.500 738.700 348.600 738.800 348.600 H 750.600 C 750.700 348.600 750.600 348.500 750.600 348.600 V 354.500 C 750.600 354.555 750.645 354.600 750.700 354.600 H 762.700 C 762.755 354.600 762.800 354.555 762.800 354.500 V 348.600 C 762.800 348.500 762.700 348.600 762.800 348.600 H 774.600 C 774.700 348.600 774.600 348.500 774.600 348.600 V 354.500 C 774.600 354.555 774.645 354.600 774.700 354.600 H 786.700 C 786.755 354.600 786.800 354.555 786.800 354.500 V 348.600 C 786.800 348.500 786.700 348.600 786.800 348.600 H 808.800 C 808.855 348.600 808.900 348.555 808.900 348.500 V 335.600 C 808.900 335.500 808.800 335.600 808.900 335.600 H 814.800 C 814.855 335.600 814.900 335.555 814.900 335.500 V 323.500 C 814.900 323.445 814.855 323.400 814.800 323.400 H 808.900 C 808.800 323.400 808.900 323.500 808.900 323.400 V 310.500 C 808.900 310.445 808.855 310.400 808.800 310.400 H 584.600 C 584.545 310.400 584.500 310.445 584.500 310.500 V 323.400 C 584.500 323.500 584.600 323.400 584.500 323.400 H 578.600 C 578.545 323.400 578.500 323.445 578.500 323.500 V 335.500 C 578.500 335.555 578.545 335.600 578.600 335.600 H 584.500 C 584.600 335.600 584.500 335.500 584.500 335.600 V 348.500 C 584.500 348.555 584.545 348.600 584.600 348.600 Z"
       stroke="rgb(0,0,0)"
       stroke-width="0.20"
       id="path1223" />
  </g>
  <g
     id="p-5"
     style="fill:none;stroke-linecap:round;stroke-linejoin:round;">
    <path
       d="M 16.400 301.400 H 31.800 C 31.900 301.400 31.800 301.300 31.800 301.400 V 307.300 C 31.800 307.355 31.845 307.400 31.900 307.400 H 43.900 C 43.955 307.400 44.000 307.355 44.000 307.300 V 301.400 C 44.000 301.300 43.900 301.400 44.000 301.400 H 55.800 C 55.900 301.400 55.800 301.300 55.800 301.400 V 307.300 C 55.800 307.355 55.845 307.400 55.900 307.400 H 67.900 C 67.955 307.400 68.000 307.355 68.000 307.300 V 301.400 C 68.000 301.300 67.900 301.400 68.000 301.400 H 79.800 C 79.900 301.400 79.800 301.300 79.800 301.400 V 307.300 C 79.800 307.355 79.845 307.400 79.900 307.400 H 91.900 C 91.955 307.400 92.000 307.355 92.000 307.300 V 301.400 C 92.000 301.300 91.900 301.400 92.000 301.400 H 103.800 C 103.900 301.400 103.800 301.300 103.800 301.400 V 307.300 C 103.800 307.355 103.845 307.400 103.900 307.400 H 115.900 C 115.955 307.400 116.000 307.355 116.000 307.300 V 301.400 C 116.000 301.300 115.900 301.400 116.000 301.400 H 127.800 C 127.900 301.400 127.800 301.300 127.800 301.400 V 307.300 C 127.800 307.355 127.845 307.400 127.900 307.400 H 139.900 C 139.955 307.400 140.000 307.355 140.000 307.300 V 301.400 C 140.000 301.300 139.900 301.400 140.000 301.400 H 151.800 C 151.900 301.400 151.800 301.300 151.800 301.400 V 307.300 C 151.800 307.355 151.845 307.400 151.900 307.400 H 163.900 C 163.955 307.400 164.000 307.355 164.000 307.300 V 301.400 C 164.000 301.300 163.900 301.400 164.000 301.400 H 179.400 H 185.400 C 185.455 301.400 185.500 301.355 185.500 301.300 V 288.300 C 185.500 288.245 185.455 288.200 185.400 288.200 H 179.500 C 179.400 288.200 179.500 288.300 179.500 288.200 V 276.400 C 179.500 276.300 179.400 276.400 179.500 276.400 H 185.400 C 185.455 276.400 185.500 276.355 185.500 276.300 V 263.300 C 185.500 263.245 185.455 263.200 185.400 263.200 H 179.400 H 16.400 H 10.400 C 10.345 263.200 10.300 263.245 10.300 263.300 V 276.300 C 10.300 276.355 10.345 276.400 10.400 276.400 H 16.300 C 16.400 276.400 16.300 276.300 16.300 276.400 V 288.200 C 16.300 288.300 16.400 288.200 16.300 288.200 H 10.400 C 10.345 288.200 10.300 288.245 10.300 288.300 V 301.300 C 10.300 301.355 10.345 301.400 10.400 301.400 H 16.400 Z"
       stroke="rgb(0,0,0)"
       stroke-width="0.20"
       id="path1226" />
  </g>
  <g
     id="p-6"
     style="fill:none;stroke-linecap:round;stroke-linejoin:round;">
    <path
       d="M 194.600 301.400 H 211.500 C 211.600 301.400 211.500 301.300 211.500 301.400 V 307.300 C 211.500 307.355 211.545 307.400 211.600 307.400 H 223.600 C 223.655 307.400 223.700 307.355 223.700 307.300 V 301.400 C 223.700 301.300 223.600 301.400 223.700 301.400 H 235.500 C 235.600 301.400 235.500 301.300 235.500 301.400 V 307.300 C 235.500 307.355 235.545 307.400 235.600 307.400 H 247.600 C 247.655 307.400 247.700 307.355 247.700 307.300 V 301.400 C 247.700 301.300 247.600 301.400 247.700 301.400 H 259.500 C 259.600 301.400 259.500 301.300 259.500 301.400 V 307.300 C 259.500 307.355 259.545 307.400 259.600 307.400 H 271.600 C 271.655 307.400 271.700 307.355 271.700 307.300 V 301.400 C 271.700 301.300 271.600 301.400 271.700 301.400 H 283.500 C 283.600 301.400 283.500 301.300 283.500 301.400 V 307.300 C 283.500 307.355 283.545 307.400 283.600 307.400 H 295.600 C 295.655 307.400 295.700 307.355 295.700 307.300 V 301.400 C 295.700 301.300 295.600 301.400 295.700 301.400 H 307.500 C 307.600 301.400 307.500 301.300 307.500 301.400 V 307.300 C 307.500 307.355 307.545 307.400 307.600 307.400 H 319.600 C 319.655 307.400 319.700 307.355 319.700 307.300 V 301.400 C 319.700 301.300 319.600 301.400 319.700 301.400 H 331.500 C 331.600 301.400 331.500 301.300 331.500 301.400 V 307.300 C 331.500 307.355 331.545 307.400 331.600 307.400 H 343.600 C 343.655 307.400 343.700 307.355 343.700 307.300 V 301.400 C 343.700 301.300 343.600 301.400 343.700 301.400 H 355.500 C 355.600 301.400 355.500 301.300 355.500 301.400 V 307.300 C 355.500 307.355 355.545 307.400 355.600 307.400 H 367.600 C 367.655 307.400 367.700 307.355 367.700 307.300 V 301.400 C 367.700 301.300 367.600 301.400 367.700 301.400 H 379.500 C 379.600 301.400 379.500 301.300 379.500 301.400 V 307.300 C 379.500 307.355 379.545 307.400 379.600 307.400 H 391.600 C 391.655 307.400 391.700 307.355 391.700 307.300 V 301.400 C 391.700 301.300 391.600 301.400 391.700 301.400 H 403.500 C 403.600 301.400 403.500 301.300 403.500 301.400 V 307.300 C 403.500 307.355 403.545 307.400 403.600 307.400 H 415.600 C 415.655 307.400 415.700 307.355 415.700 307.300 V 301.400 C 415.700 301.300 415.600 301.400 415.700 301.400 H 432.600 C 432.655 301.400 432.700 301.355 432.700 301.300 V 288.400 C 432.700 288.300 432.600 288.400 432.700 288.400 H 438.600 C 438.655 288.400 438.700 288.355 438.700 288.300 V 276.300 C 438.700 276.245 438.655 276.200 438.600 276.200 H 432.700 C 432.600 276.200 432.700 276.300 432.700 276.200 V 263.300 C 432.700 263.245 432.655 263.200 432.600 263.200 H 194.600 C 194.545 263.200 194.500 263.245 194.500 263.300 V 276.200 C 194.500 276.300 194.600 276.200 194.500 276.200 H 188.600 C 188.545 276.200 188.500 276.245 188.500 276.300 V 288.300 C 188.500 288.355 188.545 288.400 188.600 288.400 H 194.500 C 194.600 288.400 194.500 288.300 194.500 288.400 V 301.300 C 194.500 301.355 194.545 301.400 194.600 301.400 Z"
       stroke="rgb(0,0,0)"
       stroke-width="0.20"
       id="path1229" />
  </g>
  <g
     id="p-7"
     style="fill:none;stroke-linecap:round;stroke-linejoin:round;">
    <path
       d="M 447.800 301.400 H 463.200 C 463.300 301.400 463.200 301.300 463.200 301.400 V 307.300 C 463.200 307.355 463.245 307.400 463.300 307.400 H 475.300 C 475.355 307.400 475.400 307.355 475.400 307.300 V 301.400 C 475.400 301.300 475.300 301.400 475.400 301.400 H 487.200 C 487.300 301.400 487.200 301.300 487.200 301.400 V 307.300 C 487.200 307.355 487.245 307.400 487.300 307.400 H 499.300 C 499.355 307.400 499.400 307.355 499.400 307.300 V 301.400 C 499.400 301.300 499.300 301.400 499.400 301.400 H 511.200 C 511.300 301.400 511.200 301.300 511.200 301.400 V 307.300 C 511.200 307.355 511.245 307.400 511.300 307.400 H 523.300 C 523.355 307.400 523.400 307.355 523.400 307.300 V 301.400 C 523.400 301.300 523.300 301.400 523.400 301.400 H 535.200 C 535.300 301.400 535.200 301.300 535.200 301.400 V 307.300 C 535.200 307.355 535.245 307.400 535.300 307.400 H 547.300 C 547.355 307.400 547.400 307.355 547.400 307.300 V 301.400 C 547.400 301.300 547.300 301.400 547.400 301.400 H 559.200 C 559.300 301.400 559.200 301.300 559.200 301.400 V 307.300 C 559.200 307.355 559.245 307.400 559.300 307.400 H 571.300 C 571.355 307.400 571.400 307.355 571.400 307.300 V 301.400 C 571.400 301.300 571.300 301.400 571.400 301.400 H 583.200 C 583.300 301.400 583.200 301.300 583.200 301.400 V 307.300 C 583.200 307.355 583.245 307.400 583.300 307.400 H 595.300 C 595.355 307.400 595.400 307.355 595.400 307.300 V 301.400 C 595.400 301.300 595.300 301.400 595.400 301.400 H 610.800 H 616.800 C 616.855 301.400 616.900 301.355 616.900 301.300 V 288.300 C 616.900 288.245 616.855 288.200 616.800 288.200 H 610.900 C 610.800 288.200 610.900 288.300 610.900 288.200 V 276.400 C 610.900 276.300 610.800 276.400 610.900 276.400 H 616.800 C 616.855 276.400 616.900 276.355 616.900 276.300 V 263.300 C 616.900 263.245 616.855 263.200 616.800 263.200 H 610.800 H 447.800 H 441.800 C 441.745 263.200 441.700 263.245 441.700 263.300 V 276.300 C 441.700 276.355 441.745 276.400 441.800 276.400 H 447.700 C 447.800 276.400 447.700 276.300 447.700 276.400 V 288.200 C 447.700 288.300 447.800 288.200 447.700 288.200 H 441.800 C 441.745 288.200 441.700 288.245 441.700 288.300 V 301.300 C 441.700 301.355 441.745 301.400 441.800 301.400 H 447.800 Z"
       stroke="rgb(0,0,0)"
       stroke-width="0.20"
       id="path1232" />
  </g>
  <g
     id="p-8"
     style="fill:none;stroke-linecap:round;stroke-linejoin:round;">
    <path
       d="M 626.000 301.400 H 642.900 C 643.000 301.400 642.900 301.300 642.900 301.400 V 307.300 C 642.900 307.355 642.945 307.400 643.000 307.400 H 655.000 C 655.055 307.400 655.100 307.355 655.100 307.300 V 301.400 C 655.100 301.300 655.000 301.400 655.100 301.400 H 666.900 C 667.000 301.400 666.900 301.300 666.900 301.400 V 307.300 C 666.900 307.355 666.945 307.400 667.000 307.400 H 679.000 C 679.055 307.400 679.100 307.355 679.100 307.300 V 301.400 C 679.100 301.300 679.000 301.400 679.100 301.400 H 690.900 C 691.000 301.400 690.900 301.300 690.900 301.400 V 307.300 C 690.900 307.355 690.945 307.400 691.000 307.400 H 703.000 C 703.055 307.400 703.100 307.355 703.100 307.300 V 301.400 C 703.100 301.300 703.000 301.400 703.100 301.400 H 714.900 C 715.000 301.400 714.900 301.300 714.900 301.400 V 307.300 C 714.900 307.355 714.945 307.400 715.000 307.400 H 727.000 C 727.055 307.400 727.100 307.355 727.100 307.300 V 301.400 C 727.100 301.300 727.000 301.400 727.100 301.400 H 738.900 C 739.000 301.400 738.900 301.300 738.900 301.400 V 307.300 C 738.900 307.355 738.945 307.400 739.000 307.400 H 751.000 C 751.055 307.400 751.100 307.355 751.100 307.300 V 301.400 C 751.100 301.300 751.000 301.400 751.100 301.400 H 762.900 C 763.000 301.400 762.900 301.300 762.900 301.400 V 307.300 C 762.900 307.355 762.945 307.400 763.000 307.400 H 775.000 C 775.055 307.400 775.100 307.355 775.100 307.300 V 301.400 C 775.100 301.300 775.000 301.400 775.100 301.400 H 786.900 C 787.000 301.400 786.900 301.300 786.900 301.400 V 307.300 C 786.900 307.355 786.945 307.400 787.000 307.400 H 799.000 C 799.055 307.400 799.100 307.355 799.100 307.300 V 301.400 C 799.100 301.300 799.000 301.400 799.100 301.400 H 810.900 C 811.000 301.400 810.900 301.300 810.900 301.400 V 307.300 C 810.900 307.355 810.945 307.400 811.000 307.400 H 823.000 C 823.055 307.400 823.100 307.355 823.100 307.300 V 301.400 C 823.100 301.300 823.000 301.400 823.100 301.400 H 834.900 C 835.000 301.400 834.900 301.300 834.900 301.400 V 307.300 C 834.900 307.355 834.945 307.400 835.000 307.400 H 847.000 C 847.055 307.400 847.100 307.355 847.100 307.300 V 301.400 C 847.100 301.300 847.000 301.400 847.100 301.400 H 864.000 C 864.055 301.400 864.100 301.355 864.100 301.300 V 288.400 C 864.100 288.300 864.000 288.400 864.100 288.400 H 870.000 C 870.055 288.400 870.100 288.355 870.100 288.300 V 276.300 C 870.100 276.245 870.055 276.200 870.000 276.200 H 864.100 C 864.000 276.200 864.100 276.300 864.100 276.200 V 263.300 C 864.100 263.245 864.055 263.200 864.000 263.200 H 626.000 C 625.945 263.200 625.900 263.245 625.900 263.300 V 276.200 C 625.900 276.300 626.000 276.200 625.900 276.200 H 620.000 C 619.945 276.200 619.900 276.245 619.900 276.300 V 288.300 C 619.900 288.355 619.945 288.400 620.000 288.400 H 625.900 C 626.000 288.400 625.900 288.300 625.900 288.400 V 301.300 C 625.900 301.355 625.945 301.400 626.000 301.400 Z"
       stroke="rgb(0,0,0)"
       stroke-width="0.20"
       id="path1235" />
  </g>
  <g
     id="p-9"
     style="fill:none;stroke-linecap:round;stroke-linejoin:round;">
    <path
       d="M 49.900 253.100 H 44.000 C 43.900 253.100 44.000 253.200 44.000 253.100 V 247.300 C 44.000 247.200 43.900 247.300 44.000 247.300 H 55.800 C 55.900 247.300 55.800 247.200 55.800 247.300 V 253.100 C 55.800 253.200 55.900 253.100 55.800 253.100 H 49.900 Z"
       stroke="rgb(0,0,255)"
       stroke-width="0.20"
       id="path1238" />
    <path
       d="M 73.900 253.100 H 68.000 C 67.900 253.100 68.000 253.200 68.000 253.100 V 247.300 C 68.000 247.200 67.900 247.300 68.000 247.300 H 79.800 C 79.900 247.300 79.800 247.200 79.800 247.300 V 253.100 C 79.800 253.200 79.900 253.100 79.800 253.100 H 73.900 Z"
       stroke="rgb(0,0,255)"
       stroke-width="0.20"
       id="path1240" />
    <path
       d="M 97.900 253.100 H 92.000 C 91.900 253.100 92.000 253.200 92.000 253.100 V 247.300 C 92.000 247.200 91.900 247.300 92.000 247.300 H 103.800 C 103.900 247.300 103.800 247.200 103.800 247.300 V 253.100 C 103.800 253.200 103.900 253.100 103.800 253.100 H 97.900 Z"
       stroke="rgb(0,0,255)"
       stroke-width="0.20"
       id="path1242" />
    <path
       d="M 121.900 253.100 H 116.000 C 115.900 253.100 116.000 253.200 116.000 253.100 V 247.300 C 116.000 247.200 115.900 247.300 116.000 247.300 H 127.800 C 127.900 247.300 127.800 247.200 127.800 247.300 V 253.100 C 127.800 253.200 127.900 253.100 127.800 253.100 H 121.900 Z"
       stroke="rgb(0,0,255)"
       stroke-width="0.20"
       id="path1244" />
    <path
       d="M 145.900 253.100 H 140.000 C 139.900 253.100 140.000 253.200 140.000 253.100 V 247.300 C 140.000 247.200 139.900 247.300 140.000 247.300 H 151.800 C 151.900 247.300 151.800 247.200 151.800 247.300 V 253.100 C 151.800 253.200 151.900 253.100 151.800 253.100 H 145.900 Z"
       stroke="rgb(0,0,255)"
       stroke-width="0.20"
       id="path1246" />
    <path
       d="M 23.300 260.200 H 172.500 H 185.400 C 185.455 260.200 185.500 260.155 185.500 260.100 V 247.200 V 23.000 V 10.100 C 185.500 10.045 185.455 10.000 185.400 10.000 H 172.500 H 23.300 H 10.400 C 10.345 10.000 10.300 10.045 10.300 10.100 V 23.000 V 247.200 V 260.100 C 10.300 260.155 10.345 260.200 10.400 260.200 H 23.300 Z"
       stroke="rgb(0,0,0)"
       stroke-width="0.20"
       id="path1248" />
    <path
       d="M 178.400 219.100 V 225.000 C 178.400 225.100 178.500 225.000 178.400 225.000 H 172.600 C 172.500 225.000 172.600 225.100 172.600 225.000 V 213.200 C 172.600 213.100 172.500 213.200 172.600 213.200 H 178.400 C 178.500 213.200 178.400 213.100 178.400 213.200 V 219.100 Z"
       stroke="rgb(0,0,255)"
       stroke-width="0.20"
       id="path1250" />
    <path
       d="M 178.400 195.100 V 201.000 C 178.400 201.100 178.500 201.000 178.400 201.000 H 172.600 C 172.500 201.000 172.600 201.100 172.600 201.000 V 189.200 C 172.600 189.100 172.500 189.200 172.600 189.200 H 178.400 C 178.500 189.200 178.400 189.100 178.400 189.200 V 195.100 Z"
       stroke="rgb(0,0,255)"
       stroke-width="0.20"
       id="path1252" />
    <path
       d="M 178.400 171.100 V 177.000 C 178.400 177.100 178.500 177.000 178.400 177.000 H 172.600 C 172.500 177.000 172.600 177.100 172.600 177.000 V 165.200 C 172.600 165.100 172.500 165.200 172.600 165.200 H 178.400 C 178.500 165.200 178.400 165.100 178.400 165.200 V 171.100 Z"
       stroke="rgb(0,0,255)"
       stroke-width="0.20"
       id="path1254" />
    <path
       d="M 178.400 147.100 V 153.000 C 178.400 153.100 178.500 153.000 178.400 153.000 H 172.600 C 172.500 153.000 172.600 153.100 172.600 153.000 V 141.200 C 172.600 141.100 172.500 141.200 172.600 141.200 H 178.400 C 178.500 141.200 178.400 141.100 178.400 141.200 V 147.100 Z"
       stroke="rgb(0,0,255)"
       stroke-width="0.20"
       id="path1256" />
    <path
       d="M 178.400 123.100 V 129.000 C 178.400 129.100 178.500 129.000 178.400 129.000 H 172.600 C 172.500 129.000 172.600 129.100 172.600 129.000 V 117.200 C 172.600 117.100 172.500 117.200 172.600 117.200 H 178.400 C 178.500 117.200 178.400 117.100 178.400 117.200 V 123.100 Z"
       stroke="rgb(0,0,255)"
       stroke-width="0.20"
       id="path1258" />
    <path
       d="M 178.400 99.100 V 105.000 C 178.400 105.100 178.500 105.000 178.400 105.000 H 172.600 C 172.500 105.000 172.600 105.100 172.600 105.000 V 93.200 C 172.600 93.100 172.500 93.200 172.600 93.200 H 178.400 C 178.500 93.200 178.400 93.100 178.400 93.200 V 99.100 Z"
       stroke="rgb(0,0,255)"
       stroke-width="0.20"
       id="path1260" />
    <path
       d="M 178.400 75.100 V 81.000 C 178.400 81.100 178.500 81.000 178.400 81.000 H 172.600 C 172.500 81.000 172.600 81.100 172.600 81.000 V 69.200 C 172.600 69.100 172.500 69.200 172.600 69.200 H 178.400 C 178.500 69.200 178.400 69.100 178.400 69.200 V 75.100 Z"
       stroke="rgb(0,0,255)"
       stroke-width="0.20"
       id="path1262" />
    <path
       d="M 178.400 51.100 V 57.000 C 178.400 57.100 178.500 57.000 178.400 57.000 H 172.600 C 172.500 57.000 172.600 57.100 172.600 57.000 V 45.200 C 172.600 45.100 172.500 45.200 172.600 45.200 H 178.400 C 178.500 45.200 178.400 45.100 178.400 45.200 V 51.100 Z"
       stroke="rgb(0,0,255)"
       stroke-width="0.20"
       id="path1264" />
    <path
       d="M 145.900 17.100 H 151.800 C 151.900 17.100 151.800 17.000 151.800 17.100 V 22.900 C 151.800 23.000 151.900 22.900 151.800 22.900 H 140.000 C 139.900 22.900 140.000 23.000 140.000 22.900 V 17.100 C 140.000 17.000 139.900 17.100 140.000 17.100 H 145.900 Z"
       stroke="rgb(0,0,255)"
       stroke-width="0.20"
       id="path1266" />
    <path
       d="M 121.900 17.100 H 127.800 C 127.900 17.100 127.800 17.000 127.800 17.100 V 22.900 C 127.800 23.000 127.900 22.900 127.800 22.900 H 116.000 C 115.900 22.900 116.000 23.000 116.000 22.900 V 17.100 C 116.000 17.000 115.900 17.100 116.000 17.100 H 121.900 Z"
       stroke="rgb(0,0,255)"
       stroke-width="0.20"
       id="path1268" />
    <path
       d="M 97.900 17.100 H 103.800 C 103.900 17.100 103.800 17.000 103.800 17.100 V 22.900 C 103.800 23.000 103.900 22.900 103.800 22.900 H 92.000 C 91.900 22.900 92.000 23.000 92.000 22.900 V 17.100 C 92.000 17.000 91.900 17.100 92.000 17.100 H 97.900 Z"
       stroke="rgb(0,0,255)"
       stroke-width="0.20"
       id="path1270" />
    <path
       d="M 73.900 17.100 H 79.800 C 79.900 17.100 79.800 17.000 79.800 17.100 V 22.900 C 79.800 23.000 79.900 22.900 79.800 22.900 H 68.000 C 67.900 22.900 68.000 23.000 68.000 22.900 V 17.100 C 68.000 17.000 67.900 17.100 68.000 17.100 H 73.900 Z"
       stroke="rgb(0,0,255)"
       stroke-width="0.20"
       id="path1272" />
    <path
       d="M 49.900 17.100 H 55.800 C 55.900 17.100 55.800 17.000 55.800 17.100 V 22.900 C 55.800 23.000 55.900 22.900 55.800 22.900 H 44.000 C 43.900 22.900 44.000 23.000 44.000 22.900 V 17.100 C 44.000 17.000 43.900 17.100 44.000 17.100 H 49.900 Z"
       stroke="rgb(0,0,255)"
       stroke-width="0.20"
       id="path1274" />
    <path
       d="M 17.400 51.100 V 45.200 C 17.400 45.100 17.300 45.200 17.400 45.200 H 23.200 C 23.300 45.200 23.200 45.100 23.200 45.200 V 57.000 C 23.200 57.100 23.300 57.000 23.200 57.000 H 17.400 C 17.300 57.000 17.400 57.100 17.400 57.000 V 51.100 Z"
       stroke="rgb(0,0,255)"
       stroke-width="0.20"
       id="path1276" />
    <path
       d="M 17.400 75.100 V 69.200 C 17.400 69.100 17.300 69.200 17.400 69.200 H 23.200 C 23.300 69.200 23.200 69.100 23.200 69.200 V 81.000 C 23.200 81.100 23.300 81.000 23.200 81.000 H 17.400 C 17.300 81.000 17.400 81.100 17.400 81.000 V 75.100 Z"
       stroke="rgb(0,0,255)"
       stroke-width="0.20"
       id="path1278" />
    <path
       d="M 17.400 99.100 V 93.200 C 17.400 93.100 17.300 93.200 17.400 93.200 H 23.200 C 23.300 93.200 23.200 93.100 23.200 93.200 V 105.000 C 23.200 105.100 23.300 105.000 23.200 105.000 H 17.400 C 17.300 105.000 17.400 105.100 17.400 105.000 V 99.100 Z"
       stroke="rgb(0,0,255)"
       stroke-width="0.20"
       id="path1280" />
    <path
       d="M 17.400 123.100 V 117.200 C 17.400 117.100 17.300 117.200 17.400 117.200 H 23.200 C 23.300 117.200 23.200 117.100 23.200 117.200 V 129.000 C 23.200 129.100 23.300 129.000 23.200 129.000 H 17.400 C 17.300 129.000 17.400 129.100 17.400 129.000 V 123.100 Z"
       stroke="rgb(0,0,255)"
       stroke-width="0.20"
       id="path1282" />
    <path
       d="M 17.400 147.100 V 141.200 C 17.400 141.100 17.300 141.200 17.400 141.200 H 23.200 C 23.300 141.200 23.200 141.100 23.200 141.200 V 153.000 C 23.200 153.100 23.300 153.000 23.200 153.000 H 17.400 C 17.300 153.000 17.400 153.100 17.400 153.000 V 147.100 Z"
       stroke="rgb(0,0,255)"
       stroke-width="0.20"
       id="path1284" />
    <path
       d="M 17.400 171.100 V 165.200 C 17.400 165.100 17.300 165.200 17.400 165.200 H 23.200 C 23.300 165.200 23.200 165.100 23.200 165.200 V 177.000 C 23.200 177.100 23.300 177.000 23.200 177.000 H 17.400 C 17.300 177.000 17.400 177.100 17.400 177.000 V 171.100 Z"
       stroke="rgb(0,0,255)"
       stroke-width="0.20"
       id="path1286" />
    <path
       d="M 17.400 195.100 V 189.200 C 17.400 189.100 17.300 189.200 17.400 189.200 H 23.200 C 23.300 189.200 23.200 189.100 23.200 189.200 V 201.000 C 23.200 201.100 23.300 201.000 23.200 201.000 H 17.400 C 17.300 201.000 17.400 201.100 17.400 201.000 V 195.100 Z"
       stroke="rgb(0,0,255)"
       stroke-width="0.20"
       id="path1288" />
    <path
       d="M 17.400 219.100 V 213.200 C 17.400 213.100 17.300 213.200 17.400 213.200 H 23.200 C 23.300 213.200 23.200 213.100 23.200 213.200 V 225.000 C 23.200 225.100 23.300 225.000 23.200 225.000 H 17.400 C 17.300 225.000 17.400 225.100 17.400 225.000 V 219.100 Z"
       stroke="rgb(0,0,255)"
       stroke-width="0.20"
       id="path1290" />
  </g>
  <g
     id="p-10"
     style="fill:none;stroke-linecap:round;stroke-linejoin:round;">
    <path
       d="M 194.600 260.200 H 210.100 C 210.155 260.200 210.200 260.155 210.200 260.100 V 254.200 C 210.200 254.100 210.100 254.200 210.200 254.200 H 222.000 C 222.100 254.200 222.000 254.100 222.000 254.200 V 260.100 C 222.000 260.155 222.045 260.200 222.100 260.200 H 234.100 C 234.155 260.200 234.200 260.155 234.200 260.100 V 254.200 C 234.200 254.100 234.100 254.200 234.200 254.200 H 246.000 C 246.100 254.200 246.000 254.100 246.000 254.200 V 260.100 C 246.000 260.155 246.045 260.200 246.100 260.200 H 258.100 C 258.155 260.200 258.200 260.155 258.200 260.100 V 254.200 C 258.200 254.100 258.100 254.200 258.200 254.200 H 270.000 C 270.100 254.200 270.000 254.100 270.000 254.200 V 260.100 C 270.000 260.155 270.045 260.200 270.100 260.200 H 282.100 C 282.155 260.200 282.200 260.155 282.200 260.100 V 254.200 C 282.200 254.100 282.100 254.200 282.200 254.200 H 294.000 C 294.100 254.200 294.000 254.100 294.000 254.200 V 260.100 C 294.000 260.155 294.045 260.200 294.100 260.200 H 306.100 C 306.155 260.200 306.200 260.155 306.200 260.100 V 254.200 C 306.200 254.100 306.100 254.200 306.200 254.200 H 318.000 C 318.100 254.200 318.000 254.100 318.000 254.200 V 260.100 C 318.000 260.155 318.045 260.200 318.100 260.200 H 330.100 C 330.155 260.200 330.200 260.155 330.200 260.100 V 254.200 C 330.200 254.100 330.100 254.200 330.200 254.200 H 342.000 C 342.100 254.200 342.000 254.100 342.000 254.200 V 260.100 C 342.000 260.155 342.045 260.200 342.100 260.200 H 357.600 H 363.600 C 363.655 260.200 363.700 260.155 363.700 260.100 V 254.100 V 237.100 C 363.700 237.045 363.655 237.000 363.600 237.000 H 357.700 C 357.600 237.000 357.700 237.100 357.700 237.000 V 225.200 C 357.700 225.100 357.600 225.200 357.700 225.200 H 363.600 C 363.655 225.200 363.700 225.155 363.700 225.100 V 213.100 C 363.700 213.045 363.655 213.000 363.600 213.000 H 357.700 C 357.600 213.000 357.700 213.100 357.700 213.000 V 201.200 C 357.700 201.100 357.600 201.200 357.700 201.200 H 363.600 C 363.655 201.200 363.700 201.155 363.700 201.100 V 189.100 C 363.700 189.045 363.655 189.000 363.600 189.000 H 357.700 C 357.600 189.000 357.700 189.100 357.700 189.000 V 177.200 C 357.700 177.100 357.600 177.200 357.700 177.200 H 363.600 C 363.655 177.200 363.700 177.155 363.700 177.100 V 165.100 C 363.700 165.045 363.655 165.000 363.600 165.000 H 357.700 C 357.600 165.000 357.700 165.100 357.700 165.000 V 153.200 C 357.700 153.100 357.600 153.200 357.700 153.200 H 363.600 C 363.655 153.200 363.700 153.155 363.700 153.100 V 141.100 C 363.700 141.045 363.655 141.000 363.600 141.000 H 357.700 C 357.600 141.000 357.700 141.100 357.700 141.000 V 129.200 C 357.700 129.100 357.600 129.200 357.700 129.200 H 363.600 C 363.655 129.200 363.700 129.155 363.700 129.100 V 117.100 C 363.700 117.045 363.655 117.000 363.600 117.000 H 357.700 C 357.600 117.000 357.700 117.100 357.700 117.000 V 105.200 C 357.700 105.100 357.600 105.200 357.700 105.200 H 363.600 C 363.655 105.200 363.700 105.155 363.700 105.100 V 93.100 C 363.700 93.045 363.655 93.000 363.600 93.000 H 357.700 C 357.600 93.000 357.700 93.100 357.700 93.000 V 81.200 C 357.700 81.100 357.600 81.200 357.700 81.200 H 363.600 C 363.655 81.200 363.700 81.155 363.700 81.100 V 69.100 C 363.700 69.045 363.655 69.000 363.600 69.000 H 357.700 C 357.600 69.000 357.700 69.100 357.700 69.000 V 57.200 C 357.700 57.100 357.600 57.200 357.700 57.200 H 363.600 C 363.655 57.200 363.700 57.155 363.700 57.100 V 45.100 C 363.700 45.045 363.655 45.000 363.600 45.000 H 357.700 C 357.600 45.000 357.700 45.100 357.700 45.000 V 33.200 C 357.700 33.100 357.600 33.200 357.700 33.200 H 363.600 C 363.655 33.200 363.700 33.155 363.700 33.100 V 16.100 V 10.100 C 363.700 10.045 363.655 10.000 363.600 10.000 H 357.600 H 342.100 C 342.045 10.000 342.000 10.045 342.000 10.100 V 16.000 C 342.000 16.100 342.100 16.000 342.000 16.000 H 330.200 C 330.100 16.000 330.200 16.100 330.200 16.000 V 10.100 C 330.200 10.045 330.155 10.000 330.100 10.000 H 318.100 C 318.045 10.000 318.000 10.045 318.000 10.100 V 16.000 C 318.000 16.100 318.100 16.000 318.000 16.000 H 306.200 C 306.100 16.000 306.200 16.100 306.200 16.000 V 10.100 C 306.200 10.045 306.155 10.000 306.100 10.000 H 294.100 C 294.045 10.000 294.000 10.045 294.000 10.100 V 16.000 C 294.000 16.100 294.100 16.000 294.000 16.000 H 282.200 C 282.100 16.000 282.200 16.100 282.200 16.000 V 10.100 C 282.200 10.045 282.155 10.000 282.100 10.000 H 270.100 C 270.045 10.000 270.000 10.045 270.000 10.100 V 16.000 C 270.000 16.100 270.100 16.000 270.000 16.000 H 258.200 C 258.100 16.000 258.200 16.100 258.200 16.000 V 10.100 C 258.200 10.045 258.155 10.000 258.100 10.000 H 246.100 C 246.045 10.000 246.000 10.045 246.000 10.100 V 16.000 C 246.000 16.100 246.100 16.000 246.000 16.000 H 234.200 C 234.100 16.000 234.200 16.100 234.200 16.000 V 10.100 C 234.200 10.045 234.155 10.000 234.100 10.000 H 222.100 C 222.045 10.000 222.000 10.045 222.000 10.100 V 16.000 C 222.000 16.100 222.100 16.000 222.000 16.000 H 210.200 C 210.100 16.000 210.200 16.100 210.200 16.000 V 10.100 C 210.200 10.045 210.155 10.000 210.100 10.000 H 194.600 H 188.600 C 188.545 10.000 188.500 10.045 188.500 10.100 V 16.100 V 33.100 C 188.500 33.155 188.545 33.200 188.600 33.200 H 194.500 C 194.600 33.200 194.500 33.100 194.500 33.200 V 45.000 C 194.500 45.100 194.600 45.000 194.500 45.000 H 188.600 C 188.545 45.000 188.500 45.045 188.500 45.100 V 57.100 C 188.500 57.155 188.545 57.200 188.600 57.200 H 194.500 C 194.600 57.200 194.500 57.100 194.500 57.200 V 69.000 C 194.500 69.100 194.600 69.000 194.500 69.000 H 188.600 C 188.545 69.000 188.500 69.045 188.500 69.100 V 81.100 C 188.500 81.155 188.545 81.200 188.600 81.200 H 194.500 C 194.600 81.200 194.500 81.100 194.500 81.200 V 93.000 C 194.500 93.100 194.600 93.000 194.500 93.000 H 188.600 C 188.545 93.000 188.500 93.045 188.500 93.100 V 105.100 C 188.500 105.155 188.545 105.200 188.600 105.200 H 194.500 C 194.600 105.200 194.500 105.100 194.500 105.200 V 117.000 C 194.500 117.100 194.600 117.000 194.500 117.000 H 188.600 C 188.545 117.000 188.500 117.045 188.500 117.100 V 129.100 C 188.500 129.155 188.545 129.200 188.600 129.200 H 194.500 C 194.600 129.200 194.500 129.100 194.500 129.200 V 141.000 C 194.500 141.100 194.600 141.000 194.500 141.000 H 188.600 C 188.545 141.000 188.500 141.045 188.500 141.100 V 153.100 C 188.500 153.155 188.545 153.200 188.600 153.200 H 194.500 C 194.600 153.200 194.500 153.100 194.500 153.200 V 165.000 C 194.500 165.100 194.600 165.000 194.500 165.000 H 188.600 C 188.545 165.000 188.500 165.045 188.500 165.100 V 177.100 C 188.500 177.155 188.545 177.200 188.600 177.200 H 194.500 C 194.600 177.200 194.500 177.100 194.500 177.200 V 189.000 C 194.500 189.100 194.600 189.000 194.500 189.000 H 188.600 C 188.545 189.000 188.500 189.045 188.500 189.100 V 201.100 C 188.500 201.155 188.545 201.200 188.600 201.200 H 194.500 C 194.600 201.200 194.500 201.100 194.500 201.200 V 213.000 C 194.500 213.100 194.600 213.000 194.500 213.000 H 188.600 C 188.545 213.000 188.500 213.045 188.500 213.100 V 225.100 C 188.500 225.155 188.545 225.200 188.600 225.200 H 194.500 C 194.600 225.200 194.500 225.100 194.500 225.200 V 237.000 C 194.500 237.100 194.600 237.000 194.500 237.000 H 188.600 C 188.545 237.000 188.500 237.045 188.500 237.100 V 254.100 V 260.100 C 188.500 260.155 188.545 260.200 188.600 260.200 H 194.600 Z"
       stroke="rgb(0,0,0)"
       stroke-width="0.20"
       id="path1293" />
  </g>
  <ellipse
     style="fill:#00ff00;stroke-width:0.0828609;image-rendering:auto"
     id="path683-1"
     cx="222.77477"
     cy="55.67783"
     rx="3.7747662"
     ry="3.3079169" />
  <ellipse
     style="fill:#00ff00;stroke-width:0.0828609;image-rendering:auto"
     id="path683-1-4"
     cx="222.77477"
     cy="197.44568"
     rx="3.7747662"
     ry="3.3079169" />
  <ellipse
     style="fill:#00ff00;stroke-width:0.0828609;image-rendering:auto"
     id="path683-1-1"
     cx="330.62521"
     cy="197.44568"
     rx="3.7747662"
     ry="3.3079169" />
  <ellipse
     style="fill:#00ff00;stroke-width:0.0828609;image-rendering:auto"
     id="path683-1-9"
     cx="330.62521"
     cy="55.67783"
     rx="3.7747662"
     ry="3.3079169" />
  <ellipse
     style="fill:#00ff00;stroke-width:0.414303;image-rendering:auto"
     id="path683-1-13"
     cx="272.92523"
     cy="123.53738"
     rx="18.873833"
     ry="16.539583" />
</svg>
