<?xml version="1.0" encoding="UTF-8" standalone="no"?>
<svg
   height="379.30mm"
   viewBox="0.0 0.0 875.60 379.30"
   width="875.60mm"
   version="1.1"
   id="svg342"
   sodipodi:docname="TwoPiece.svg"
   inkscape:version="1.2 (dc2aedaf03, 2022-05-15)"
   xmlns:inkscape="http://www.inkscape.org/namespaces/inkscape"
   xmlns:sodipodi="http://sodipodi.sourceforge.net/DTD/sodipodi-0.dtd"
   xmlns="http://www.w3.org/2000/svg"
   xmlns:svg="http://www.w3.org/2000/svg"
   xmlns:rdf="http://www.w3.org/1999/02/22-rdf-syntax-ns#"
   xmlns:cc="http://creativecommons.org/ns#"
   xmlns:dc="http://purl.org/dc/elements/1.1/">
  <defs
     id="defs346" />
  <sodipodi:namedview
     id="namedview344"
     pagecolor="#ffffff"
     bordercolor="#000000"
     borderopacity="0.25"
     inkscape:showpageshadow="2"
     inkscape:pageopacity="0.0"
     inkscape:pagecheckerboard="0"
     inkscape:deskcolor="#d1d1d1"
     inkscape:document-units="mm"
     showgrid="false"
     inkscape:zoom="0.64485338"
     inkscape:cx="1836.0763"
     inkscape:cy="1152.1999"
     inkscape:window-width="2880"
     inkscape:window-height="1706"
     inkscape:window-x="2869"
     inkscape:window-y="-11"
     inkscape:window-maximized="1"
     inkscape:current-layer="svg342" />
  <!--
TwoPiece - A two piece box where top slips over the bottom half to form 
       the enclosure.
    



Set *hi* larger than *h* to leave gap between the inner and outer shell. This can be used to make opening the box easier. Set *hi* smaller to only have a small inner ridge that will allow the content to be momre visible after opening.

![Bottom view](static/samples/TwoPiece2.jpg)



Created with Boxes.py (https://festi.info/boxes.py)
Creation date: 2022-07-22 10:25:51
Command line (remove spaces between dashes): boxes TwoPiece - -FingerJoint_angle=90.0 - -FingerJoint_style=rectangular - -FingerJoint_surroundingspaces=2.0 - -FingerJoint_edge_width=1.0 - -FingerJoint_extra_length=0.0 - -FingerJoint_finger=2.0 - -FingerJoint_play=0.0 - -FingerJoint_space=2.0 - -FingerJoint_width=1.0 - -x=175.0 - -y=250.0 - -h=50.0 - -hi=0.0 - -outside=0 - -outside=1 - -play=0.15 - -thickness=3.0 - -format=svg - -tabs=0.0 - -debug=0 - -labels=0 - -labels=1 - -reference=100 - -inner_corners=loop - -burn=0.1
Url: http://www.festi.info/TwoPiece?FingerJoint_angle=90.0&FingerJoint_style=rectangular&FingerJoint_surroundingspaces=2.0&FingerJoint_edge_width=1.0&FingerJoint_extra_length=0.0&FingerJoint_finger=2.0&FingerJoint_play=0.0&FingerJoint_space=2.0&FingerJoint_width=1.0&x=175.0&y=250.0&h=50.0&hi=0.0&outside=0&outside=1&play=0.15&thickness=3.0&format=svg&tabs=0.0&debug=0&labels=0&labels=1&reference=100&inner_corners=loop&burn=0.1&render=1
SettingsUrl: http://www.festi.info/TwoPiece?FingerJoint_angle=90.0&FingerJoint_style=rectangular&FingerJoint_surroundingspaces=2.0&FingerJoint_edge_width=1.0&FingerJoint_extra_length=0.0&FingerJoint_finger=2.0&FingerJoint_play=0.0&FingerJoint_space=2.0&FingerJoint_width=1.0&x=175.0&y=250.0&h=50.0&hi=0.0&outside=0&outside=1&play=0.15&thickness=3.0&format=svg&tabs=0.0&debug=0&labels=0&labels=1&reference=100&inner_corners=loop&burn=0.1
-->
  <title
     id="title175">TwoPiece</title>
  <metadata
     id="metadata177">
    <rdf:RDF>
      <cc:Work>
        <dc:title>Box - TwoPiece</dc:title>
        <dc:date>2022-07-22 10:25:51</dc:date>
        <dc:source>http://www.festi.info/TwoPiece?FingerJoint_angle=90.0&amp;FingerJoint_style=rectangular&amp;FingerJoint_surroundingspaces=2.0&amp;FingerJoint_edge_width=1.0&amp;FingerJoint_extra_length=0.0&amp;FingerJoint_finger=2.0&amp;FingerJoint_play=0.0&amp;FingerJoint_space=2.0&amp;FingerJoint_width=1.0&amp;x=175.0&amp;y=250.0&amp;h=50.0&amp;hi=0.0&amp;outside=0&amp;outside=1&amp;play=0.15&amp;thickness=3.0&amp;format=svg&amp;tabs=0.0&amp;debug=0&amp;labels=0&amp;labels=1&amp;reference=100&amp;inner_corners=loop&amp;burn=0.1&amp;render=1</dc:source>
        <dc:description>A two piece box where top slips over the bottom half to form 
       the enclosure.
    


Set *hi* larger than *h* to leave gap between the inner and outer shell. This can be used to make opening the box easier. Set *hi* smaller to only have a small inner ridge that will allow the content to be momre visible after opening.

![Bottom view](static/samples/TwoPiece2.jpg)


Created with Boxes.py (https://festi.info/boxes.py)
Command line: boxes TwoPiece --FingerJoint_angle=90.0 --FingerJoint_style=rectangular --FingerJoint_surroundingspaces=2.0 --FingerJoint_edge_width=1.0 --FingerJoint_extra_length=0.0 --FingerJoint_finger=2.0 --FingerJoint_play=0.0 --FingerJoint_space=2.0 --FingerJoint_width=1.0 --x=175.0 --y=250.0 --h=50.0 --hi=0.0 --outside=0 --outside=1 --play=0.15 --thickness=3.0 --format=svg --tabs=0.0 --debug=0 --labels=0 --labels=1 --reference=100 --inner_corners=loop --burn=0.1
Url: http://www.festi.info/TwoPiece?FingerJoint_angle=90.0&amp;FingerJoint_style=rectangular&amp;FingerJoint_surroundingspaces=2.0&amp;FingerJoint_edge_width=1.0&amp;FingerJoint_extra_length=0.0&amp;FingerJoint_finger=2.0&amp;FingerJoint_play=0.0&amp;FingerJoint_space=2.0&amp;FingerJoint_width=1.0&amp;x=175.0&amp;y=250.0&amp;h=50.0&amp;hi=0.0&amp;outside=0&amp;outside=1&amp;play=0.15&amp;thickness=3.0&amp;format=svg&amp;tabs=0.0&amp;debug=0&amp;labels=0&amp;labels=1&amp;reference=100&amp;inner_corners=loop&amp;burn=0.1&amp;render=1
SettingsUrl: http://www.festi.info/TwoPiece?FingerJoint_angle=90.0&amp;FingerJoint_style=rectangular&amp;FingerJoint_surroundingspaces=2.0&amp;FingerJoint_edge_width=1.0&amp;FingerJoint_extra_length=0.0&amp;FingerJoint_finger=2.0&amp;FingerJoint_play=0.0&amp;FingerJoint_space=2.0&amp;FingerJoint_width=1.0&amp;x=175.0&amp;y=250.0&amp;h=50.0&amp;hi=0.0&amp;outside=0&amp;outside=1&amp;play=0.15&amp;thickness=3.0&amp;format=svg&amp;tabs=0.0&amp;debug=0&amp;labels=0&amp;labels=1&amp;reference=100&amp;inner_corners=loop&amp;burn=0.1
</dc:description>
      </cc:Work>
    </rdf:RDF>
  </metadata>
  <g
     id="p-0"
     style="fill:none;stroke-linecap:round;stroke-linejoin:round;">
    <path
       d="M 10.400 369.300 H 110.400 V 359.300 H 10.400 V 369.300 Z"
       stroke="rgb(0,0,0)"
       stroke-width="0.20"
       id="path179" />
    <text
       dominant-baseline="hanging"
       font-size="8px"
       style="font-family: sans-serif ; font-weight: normal; font-style: normal; fill: rgb(255,0,0)"
       text-anchor="middle"
       transform="matrix( 1.000 0.000 0.000 1.000 60.400 360.300 )"
       id="text181">100mm, burn:0.10mm</text>
  </g>
  <g
     id="p-1"
     style="fill:none;stroke-linecap:round;stroke-linejoin:round;">
    <path
       d="M 13.400 354.600 H 19.350 C 19.450 354.600 19.350 354.500 19.350 354.600 V 357.500 C 19.350 357.555 19.395 357.600 19.450 357.600 H 25.450 C 25.505 357.600 25.550 357.555 25.550 357.500 V 354.600 C 25.550 354.500 25.450 354.600 25.550 354.600 H 31.350 C 31.450 354.600 31.350 354.500 31.350 354.600 V 357.500 C 31.350 357.555 31.395 357.600 31.450 357.600 H 37.450 C 37.505 357.600 37.550 357.555 37.550 357.500 V 354.600 C 37.550 354.500 37.450 354.600 37.550 354.600 H 43.350 C 43.450 354.600 43.350 354.500 43.350 354.600 V 357.500 C 43.350 357.555 43.395 357.600 43.450 357.600 H 49.450 C 49.505 357.600 49.550 357.555 49.550 357.500 V 354.600 C 49.550 354.500 49.450 354.600 49.550 354.600 H 55.350 C 55.450 354.600 55.350 354.500 55.350 354.600 V 357.500 C 55.350 357.555 55.395 357.600 55.450 357.600 H 61.450 C 61.505 357.600 61.550 357.555 61.550 357.500 V 354.600 C 61.550 354.500 61.450 354.600 61.550 354.600 H 67.350 C 67.450 354.600 67.350 354.500 67.350 354.600 V 357.500 C 67.350 357.555 67.395 357.600 67.450 357.600 H 73.450 C 73.505 357.600 73.550 357.555 73.550 357.500 V 354.600 C 73.550 354.500 73.450 354.600 73.550 354.600 H 79.350 C 79.450 354.600 79.350 354.500 79.350 354.600 V 357.500 C 79.350 357.555 79.395 357.600 79.450 357.600 H 85.450 C 85.505 357.600 85.550 357.555 85.550 357.500 V 354.600 C 85.550 354.500 85.450 354.600 85.550 354.600 H 91.350 C 91.450 354.600 91.350 354.500 91.350 354.600 V 357.500 C 91.350 357.555 91.395 357.600 91.450 357.600 H 97.450 C 97.505 357.600 97.550 357.555 97.550 357.500 V 354.600 C 97.550 354.500 97.450 354.600 97.550 354.600 H 103.350 C 103.450 354.600 103.350 354.500 103.350 354.600 V 357.500 C 103.350 357.555 103.395 357.600 103.450 357.600 H 109.450 C 109.505 357.600 109.550 357.555 109.550 357.500 V 354.600 C 109.550 354.500 109.450 354.600 109.550 354.600 H 115.350 C 115.450 354.600 115.350 354.500 115.350 354.600 V 357.500 C 115.350 357.555 115.395 357.600 115.450 357.600 H 121.450 C 121.505 357.600 121.550 357.555 121.550 357.500 V 354.600 C 121.550 354.500 121.450 354.600 121.550 354.600 H 127.350 C 127.450 354.600 127.350 354.500 127.350 354.600 V 357.500 C 127.350 357.555 127.395 357.600 127.450 357.600 H 133.450 C 133.505 357.600 133.550 357.555 133.550 357.500 V 354.600 C 133.550 354.500 133.450 354.600 133.550 354.600 H 139.350 C 139.450 354.600 139.350 354.500 139.350 354.600 V 357.500 C 139.350 357.555 139.395 357.600 139.450 357.600 H 145.450 C 145.505 357.600 145.550 357.555 145.550 357.500 V 354.600 C 145.550 354.500 145.450 354.600 145.550 354.600 H 151.350 C 151.450 354.600 151.350 354.500 151.350 354.600 V 357.500 C 151.350 357.555 151.395 357.600 151.450 357.600 H 157.450 C 157.505 357.600 157.550 357.555 157.550 357.500 V 354.600 C 157.550 354.500 157.450 354.600 157.550 354.600 H 163.350 C 163.450 354.600 163.350 354.500 163.350 354.600 V 357.500 C 163.350 357.555 163.395 357.600 163.450 357.600 H 169.450 C 169.505 357.600 169.550 357.555 169.550 357.500 V 354.600 C 169.550 354.500 169.450 354.600 169.550 354.600 H 175.500 H 178.500 C 178.555 354.600 178.600 354.555 178.600 354.500 V 347.500 C 178.600 347.445 178.555 347.400 178.500 347.400 H 175.600 C 175.500 347.400 175.600 347.500 175.600 347.400 V 341.600 C 175.600 341.500 175.500 341.600 175.600 341.600 H 178.500 C 178.555 341.600 178.600 341.555 178.600 341.500 V 335.500 C 178.600 335.445 178.555 335.400 178.500 335.400 H 175.600 C 175.500 335.400 175.600 335.500 175.600 335.400 V 329.600 C 175.600 329.500 175.500 329.600 175.600 329.600 H 178.500 C 178.555 329.600 178.600 329.555 178.600 329.500 V 323.500 C 178.600 323.445 178.555 323.400 178.500 323.400 H 175.600 C 175.500 323.400 175.600 323.500 175.600 323.400 V 317.600 C 175.600 317.500 175.500 317.600 175.600 317.600 H 178.500 C 178.555 317.600 178.600 317.555 178.600 317.500 V 310.500 C 178.600 310.445 178.555 310.400 178.500 310.400 H 175.500 H 13.400 H 10.400 C 10.345 310.400 10.300 310.445 10.300 310.500 V 317.500 C 10.300 317.555 10.345 317.600 10.400 317.600 H 13.300 C 13.400 317.600 13.300 317.500 13.300 317.600 V 323.400 C 13.300 323.500 13.400 323.400 13.300 323.400 H 10.400 C 10.345 323.400 10.300 323.445 10.300 323.500 V 329.500 C 10.300 329.555 10.345 329.600 10.400 329.600 H 13.300 C 13.400 329.600 13.300 329.500 13.300 329.600 V 335.400 C 13.300 335.500 13.400 335.400 13.300 335.400 H 10.400 C 10.345 335.400 10.300 335.445 10.300 335.500 V 341.500 C 10.300 341.555 10.345 341.600 10.400 341.600 H 13.300 C 13.400 341.600 13.300 341.500 13.300 341.600 V 347.400 C 13.300 347.500 13.400 347.400 13.300 347.400 H 10.400 C 10.345 347.400 10.300 347.445 10.300 347.500 V 354.500 C 10.300 354.555 10.345 354.600 10.400 354.600 H 13.400 Z"
       stroke="rgb(0,0,0)"
       stroke-width="0.20"
       id="path184" />
  </g>
  <g
     id="p-2"
     style="fill:none;stroke-linecap:round;stroke-linejoin:round;">
    <path
       d="M 183.200 354.600 H 190.650 C 190.750 354.600 190.650 354.500 190.650 354.600 V 357.500 C 190.650 357.555 190.695 357.600 190.750 357.600 H 196.750 C 196.805 357.600 196.850 357.555 196.850 357.500 V 354.600 C 196.850 354.500 196.750 354.600 196.850 354.600 H 202.650 C 202.750 354.600 202.650 354.500 202.650 354.600 V 357.500 C 202.650 357.555 202.695 357.600 202.750 357.600 H 208.750 C 208.805 357.600 208.850 357.555 208.850 357.500 V 354.600 C 208.850 354.500 208.750 354.600 208.850 354.600 H 214.650 C 214.750 354.600 214.650 354.500 214.650 354.600 V 357.500 C 214.650 357.555 214.695 357.600 214.750 357.600 H 220.750 C 220.805 357.600 220.850 357.555 220.850 357.500 V 354.600 C 220.850 354.500 220.750 354.600 220.850 354.600 H 226.650 C 226.750 354.600 226.650 354.500 226.650 354.600 V 357.500 C 226.650 357.555 226.695 357.600 226.750 357.600 H 232.750 C 232.805 357.600 232.850 357.555 232.850 357.500 V 354.600 C 232.850 354.500 232.750 354.600 232.850 354.600 H 238.650 C 238.750 354.600 238.650 354.500 238.650 354.600 V 357.500 C 238.650 357.555 238.695 357.600 238.750 357.600 H 244.750 C 244.805 357.600 244.850 357.555 244.850 357.500 V 354.600 C 244.850 354.500 244.750 354.600 244.850 354.600 H 250.650 C 250.750 354.600 250.650 354.500 250.650 354.600 V 357.500 C 250.650 357.555 250.695 357.600 250.750 357.600 H 256.750 C 256.805 357.600 256.850 357.555 256.850 357.500 V 354.600 C 256.850 354.500 256.750 354.600 256.850 354.600 H 262.650 C 262.750 354.600 262.650 354.500 262.650 354.600 V 357.500 C 262.650 357.555 262.695 357.600 262.750 357.600 H 268.750 C 268.805 357.600 268.850 357.555 268.850 357.500 V 354.600 C 268.850 354.500 268.750 354.600 268.850 354.600 H 274.650 C 274.750 354.600 274.650 354.500 274.650 354.600 V 357.500 C 274.650 357.555 274.695 357.600 274.750 357.600 H 280.750 C 280.805 357.600 280.850 357.555 280.850 357.500 V 354.600 C 280.850 354.500 280.750 354.600 280.850 354.600 H 286.650 C 286.750 354.600 286.650 354.500 286.650 354.600 V 357.500 C 286.650 357.555 286.695 357.600 286.750 357.600 H 292.750 C 292.805 357.600 292.850 357.555 292.850 357.500 V 354.600 C 292.850 354.500 292.750 354.600 292.850 354.600 H 298.650 C 298.750 354.600 298.650 354.500 298.650 354.600 V 357.500 C 298.650 357.555 298.695 357.600 298.750 357.600 H 304.750 C 304.805 357.600 304.850 357.555 304.850 357.500 V 354.600 C 304.850 354.500 304.750 354.600 304.850 354.600 H 310.650 C 310.750 354.600 310.650 354.500 310.650 354.600 V 357.500 C 310.650 357.555 310.695 357.600 310.750 357.600 H 316.750 C 316.805 357.600 316.850 357.555 316.850 357.500 V 354.600 C 316.850 354.500 316.750 354.600 316.850 354.600 H 322.650 C 322.750 354.600 322.650 354.500 322.650 354.600 V 357.500 C 322.650 357.555 322.695 357.600 322.750 357.600 H 328.750 C 328.805 357.600 328.850 357.555 328.850 357.500 V 354.600 C 328.850 354.500 328.750 354.600 328.850 354.600 H 334.650 C 334.750 354.600 334.650 354.500 334.650 354.600 V 357.500 C 334.650 357.555 334.695 357.600 334.750 357.600 H 340.750 C 340.805 357.600 340.850 357.555 340.850 357.500 V 354.600 C 340.850 354.500 340.750 354.600 340.850 354.600 H 346.650 C 346.750 354.600 346.650 354.500 346.650 354.600 V 357.500 C 346.650 357.555 346.695 357.600 346.750 357.600 H 352.750 C 352.805 357.600 352.850 357.555 352.850 357.500 V 354.600 C 352.850 354.500 352.750 354.600 352.850 354.600 H 358.650 C 358.750 354.600 358.650 354.500 358.650 354.600 V 357.500 C 358.650 357.555 358.695 357.600 358.750 357.600 H 364.750 C 364.805 357.600 364.850 357.555 364.850 357.500 V 354.600 C 364.850 354.500 364.750 354.600 364.850 354.600 H 370.650 C 370.750 354.600 370.650 354.500 370.650 354.600 V 357.500 C 370.650 357.555 370.695 357.600 370.750 357.600 H 376.750 C 376.805 357.600 376.850 357.555 376.850 357.500 V 354.600 C 376.850 354.500 376.750 354.600 376.850 354.600 H 382.650 C 382.750 354.600 382.650 354.500 382.650 354.600 V 357.500 C 382.650 357.555 382.695 357.600 382.750 357.600 H 388.750 C 388.805 357.600 388.850 357.555 388.850 357.500 V 354.600 C 388.850 354.500 388.750 354.600 388.850 354.600 H 394.650 C 394.750 354.600 394.650 354.500 394.650 354.600 V 357.500 C 394.650 357.555 394.695 357.600 394.750 357.600 H 400.750 C 400.805 357.600 400.850 357.555 400.850 357.500 V 354.600 C 400.850 354.500 400.750 354.600 400.850 354.600 H 406.650 C 406.750 354.600 406.650 354.500 406.650 354.600 V 357.500 C 406.650 357.555 406.695 357.600 406.750 357.600 H 412.750 C 412.805 357.600 412.850 357.555 412.850 357.500 V 354.600 C 412.850 354.500 412.750 354.600 412.850 354.600 H 420.300 C 420.355 354.600 420.400 354.555 420.400 354.500 V 347.600 C 420.400 347.500 420.300 347.600 420.400 347.600 H 423.300 C 423.355 347.600 423.400 347.555 423.400 347.500 V 341.500 C 423.400 341.445 423.355 341.400 423.300 341.400 H 420.400 C 420.300 341.400 420.400 341.500 420.400 341.400 V 335.600 C 420.400 335.500 420.300 335.600 420.400 335.600 H 423.300 C 423.355 335.600 423.400 335.555 423.400 335.500 V 329.500 C 423.400 329.445 423.355 329.400 423.300 329.400 H 420.400 C 420.300 329.400 420.400 329.500 420.400 329.400 V 323.600 C 420.400 323.500 420.300 323.600 420.400 323.600 H 423.300 C 423.355 323.600 423.400 323.555 423.400 323.500 V 317.500 C 423.400 317.445 423.355 317.400 423.300 317.400 H 420.400 C 420.300 317.400 420.400 317.500 420.400 317.400 V 310.500 C 420.400 310.445 420.355 310.400 420.300 310.400 H 183.200 C 183.145 310.400 183.100 310.445 183.100 310.500 V 317.400 C 183.100 317.500 183.200 317.400 183.100 317.400 H 180.200 C 180.145 317.400 180.100 317.445 180.100 317.500 V 323.500 C 180.100 323.555 180.145 323.600 180.200 323.600 H 183.100 C 183.200 323.600 183.100 323.500 183.100 323.600 V 329.400 C 183.100 329.500 183.200 329.400 183.100 329.400 H 180.200 C 180.145 329.400 180.100 329.445 180.100 329.500 V 335.500 C 180.100 335.555 180.145 335.600 180.200 335.600 H 183.100 C 183.200 335.600 183.100 335.500 183.100 335.600 V 341.400 C 183.100 341.500 183.200 341.400 183.100 341.400 H 180.200 C 180.145 341.400 180.100 341.445 180.100 341.500 V 347.500 C 180.100 347.555 180.145 347.600 180.200 347.600 H 183.100 C 183.200 347.600 183.100 347.500 183.100 347.600 V 354.500 C 183.100 354.555 183.145 354.600 183.200 354.600 Z"
       stroke="rgb(0,0,0)"
       stroke-width="0.20"
       id="path187" />
  </g>
  <g
     id="p-3"
     style="fill:none;stroke-linecap:round;stroke-linejoin:round;">
    <path
       d="M 428.000 354.600 H 433.950 C 434.050 354.600 433.950 354.500 433.950 354.600 V 357.500 C 433.950 357.555 433.995 357.600 434.050 357.600 H 440.050 C 440.105 357.600 440.150 357.555 440.150 357.500 V 354.600 C 440.150 354.500 440.050 354.600 440.150 354.600 H 445.950 C 446.050 354.600 445.950 354.500 445.950 354.600 V 357.500 C 445.950 357.555 445.995 357.600 446.050 357.600 H 452.050 C 452.105 357.600 452.150 357.555 452.150 357.500 V 354.600 C 452.150 354.500 452.050 354.600 452.150 354.600 H 457.950 C 458.050 354.600 457.950 354.500 457.950 354.600 V 357.500 C 457.950 357.555 457.995 357.600 458.050 357.600 H 464.050 C 464.105 357.600 464.150 357.555 464.150 357.500 V 354.600 C 464.150 354.500 464.050 354.600 464.150 354.600 H 469.950 C 470.050 354.600 469.950 354.500 469.950 354.600 V 357.500 C 469.950 357.555 469.995 357.600 470.050 357.600 H 476.050 C 476.105 357.600 476.150 357.555 476.150 357.500 V 354.600 C 476.150 354.500 476.050 354.600 476.150 354.600 H 481.950 C 482.050 354.600 481.950 354.500 481.950 354.600 V 357.500 C 481.950 357.555 481.995 357.600 482.050 357.600 H 488.050 C 488.105 357.600 488.150 357.555 488.150 357.500 V 354.600 C 488.150 354.500 488.050 354.600 488.150 354.600 H 493.950 C 494.050 354.600 493.950 354.500 493.950 354.600 V 357.500 C 493.950 357.555 493.995 357.600 494.050 357.600 H 500.050 C 500.105 357.600 500.150 357.555 500.150 357.500 V 354.600 C 500.150 354.500 500.050 354.600 500.150 354.600 H 505.950 C 506.050 354.600 505.950 354.500 505.950 354.600 V 357.500 C 505.950 357.555 505.995 357.600 506.050 357.600 H 512.050 C 512.105 357.600 512.150 357.555 512.150 357.500 V 354.600 C 512.150 354.500 512.050 354.600 512.150 354.600 H 517.950 C 518.050 354.600 517.950 354.500 517.950 354.600 V 357.500 C 517.950 357.555 517.995 357.600 518.050 357.600 H 524.050 C 524.105 357.600 524.150 357.555 524.150 357.500 V 354.600 C 524.150 354.500 524.050 354.600 524.150 354.600 H 529.950 C 530.050 354.600 529.950 354.500 529.950 354.600 V 357.500 C 529.950 357.555 529.995 357.600 530.050 357.600 H 536.050 C 536.105 357.600 536.150 357.555 536.150 357.500 V 354.600 C 536.150 354.500 536.050 354.600 536.150 354.600 H 541.950 C 542.050 354.600 541.950 354.500 541.950 354.600 V 357.500 C 541.950 357.555 541.995 357.600 542.050 357.600 H 548.050 C 548.105 357.600 548.150 357.555 548.150 357.500 V 354.600 C 548.150 354.500 548.050 354.600 548.150 354.600 H 553.950 C 554.050 354.600 553.950 354.500 553.950 354.600 V 357.500 C 553.950 357.555 553.995 357.600 554.050 357.600 H 560.050 C 560.105 357.600 560.150 357.555 560.150 357.500 V 354.600 C 560.150 354.500 560.050 354.600 560.150 354.600 H 565.950 C 566.050 354.600 565.950 354.500 565.950 354.600 V 357.500 C 565.950 357.555 565.995 357.600 566.050 357.600 H 572.050 C 572.105 357.600 572.150 357.555 572.150 357.500 V 354.600 C 572.150 354.500 572.050 354.600 572.150 354.600 H 577.950 C 578.050 354.600 577.950 354.500 577.950 354.600 V 357.500 C 577.950 357.555 577.995 357.600 578.050 357.600 H 584.050 C 584.105 357.600 584.150 357.555 584.150 357.500 V 354.600 C 584.150 354.500 584.050 354.600 584.150 354.600 H 590.100 H 593.100 C 593.155 354.600 593.200 354.555 593.200 354.500 V 347.500 C 593.200 347.445 593.155 347.400 593.100 347.400 H 590.200 C 590.100 347.400 590.200 347.500 590.200 347.400 V 341.600 C 590.200 341.500 590.100 341.600 590.200 341.600 H 593.100 C 593.155 341.600 593.200 341.555 593.200 341.500 V 335.500 C 593.200 335.445 593.155 335.400 593.100 335.400 H 590.200 C 590.100 335.400 590.200 335.500 590.200 335.400 V 329.600 C 590.200 329.500 590.100 329.600 590.200 329.600 H 593.100 C 593.155 329.600 593.200 329.555 593.200 329.500 V 323.500 C 593.200 323.445 593.155 323.400 593.100 323.400 H 590.200 C 590.100 323.400 590.200 323.500 590.200 323.400 V 317.600 C 590.200 317.500 590.100 317.600 590.200 317.600 H 593.100 C 593.155 317.600 593.200 317.555 593.200 317.500 V 310.500 C 593.200 310.445 593.155 310.400 593.100 310.400 H 590.100 H 428.000 H 425.000 C 424.945 310.400 424.900 310.445 424.900 310.500 V 317.500 C 424.900 317.555 424.945 317.600 425.000 317.600 H 427.900 C 428.000 317.600 427.900 317.500 427.900 317.600 V 323.400 C 427.900 323.500 428.000 323.400 427.900 323.400 H 425.000 C 424.945 323.400 424.900 323.445 424.900 323.500 V 329.500 C 424.900 329.555 424.945 329.600 425.000 329.600 H 427.900 C 428.000 329.600 427.900 329.500 427.900 329.600 V 335.400 C 427.900 335.500 428.000 335.400 427.900 335.400 H 425.000 C 424.945 335.400 424.900 335.445 424.900 335.500 V 341.500 C 424.900 341.555 424.945 341.600 425.000 341.600 H 427.900 C 428.000 341.600 427.900 341.500 427.900 341.600 V 347.400 C 427.900 347.500 428.000 347.400 427.900 347.400 H 425.000 C 424.945 347.400 424.900 347.445 424.900 347.500 V 354.500 C 424.900 354.555 424.945 354.600 425.000 354.600 H 428.000 Z"
       stroke="rgb(0,0,0)"
       stroke-width="0.20"
       id="path190" />
  </g>
  <g
     id="p-4"
     style="fill:none;stroke-linecap:round;stroke-linejoin:round;">
    <path
       d="M 597.800 354.600 H 605.250 C 605.350 354.600 605.250 354.500 605.250 354.600 V 357.500 C 605.250 357.555 605.295 357.600 605.350 357.600 H 611.350 C 611.405 357.600 611.450 357.555 611.450 357.500 V 354.600 C 611.450 354.500 611.350 354.600 611.450 354.600 H 617.250 C 617.350 354.600 617.250 354.500 617.250 354.600 V 357.500 C 617.250 357.555 617.295 357.600 617.350 357.600 H 623.350 C 623.405 357.600 623.450 357.555 623.450 357.500 V 354.600 C 623.450 354.500 623.350 354.600 623.450 354.600 H 629.250 C 629.350 354.600 629.250 354.500 629.250 354.600 V 357.500 C 629.250 357.555 629.295 357.600 629.350 357.600 H 635.350 C 635.405 357.600 635.450 357.555 635.450 357.500 V 354.600 C 635.450 354.500 635.350 354.600 635.450 354.600 H 641.250 C 641.350 354.600 641.250 354.500 641.250 354.600 V 357.500 C 641.250 357.555 641.295 357.600 641.350 357.600 H 647.350 C 647.405 357.600 647.450 357.555 647.450 357.500 V 354.600 C 647.450 354.500 647.350 354.600 647.450 354.600 H 653.250 C 653.350 354.600 653.250 354.500 653.250 354.600 V 357.500 C 653.250 357.555 653.295 357.600 653.350 357.600 H 659.350 C 659.405 357.600 659.450 357.555 659.450 357.500 V 354.600 C 659.450 354.500 659.350 354.600 659.450 354.600 H 665.250 C 665.350 354.600 665.250 354.500 665.250 354.600 V 357.500 C 665.250 357.555 665.295 357.600 665.350 357.600 H 671.350 C 671.405 357.600 671.450 357.555 671.450 357.500 V 354.600 C 671.450 354.500 671.350 354.600 671.450 354.600 H 677.250 C 677.350 354.600 677.250 354.500 677.250 354.600 V 357.500 C 677.250 357.555 677.295 357.600 677.350 357.600 H 683.350 C 683.405 357.600 683.450 357.555 683.450 357.500 V 354.600 C 683.450 354.500 683.350 354.600 683.450 354.600 H 689.250 C 689.350 354.600 689.250 354.500 689.250 354.600 V 357.500 C 689.250 357.555 689.295 357.600 689.350 357.600 H 695.350 C 695.405 357.600 695.450 357.555 695.450 357.500 V 354.600 C 695.450 354.500 695.350 354.600 695.450 354.600 H 701.250 C 701.350 354.600 701.250 354.500 701.250 354.600 V 357.500 C 701.250 357.555 701.295 357.600 701.350 357.600 H 707.350 C 707.405 357.600 707.450 357.555 707.450 357.500 V 354.600 C 707.450 354.500 707.350 354.600 707.450 354.600 H 713.250 C 713.350 354.600 713.250 354.500 713.250 354.600 V 357.500 C 713.250 357.555 713.295 357.600 713.350 357.600 H 719.350 C 719.405 357.600 719.450 357.555 719.450 357.500 V 354.600 C 719.450 354.500 719.350 354.600 719.450 354.600 H 725.250 C 725.350 354.600 725.250 354.500 725.250 354.600 V 357.500 C 725.250 357.555 725.295 357.600 725.350 357.600 H 731.350 C 731.405 357.600 731.450 357.555 731.450 357.500 V 354.600 C 731.450 354.500 731.350 354.600 731.450 354.600 H 737.250 C 737.350 354.600 737.250 354.500 737.250 354.600 V 357.500 C 737.250 357.555 737.295 357.600 737.350 357.600 H 743.350 C 743.405 357.600 743.450 357.555 743.450 357.500 V 354.600 C 743.450 354.500 743.350 354.600 743.450 354.600 H 749.250 C 749.350 354.600 749.250 354.500 749.250 354.600 V 357.500 C 749.250 357.555 749.295 357.600 749.350 357.600 H 755.350 C 755.405 357.600 755.450 357.555 755.450 357.500 V 354.600 C 755.450 354.500 755.350 354.600 755.450 354.600 H 761.250 C 761.350 354.600 761.250 354.500 761.250 354.600 V 357.500 C 761.250 357.555 761.295 357.600 761.350 357.600 H 767.350 C 767.405 357.600 767.450 357.555 767.450 357.500 V 354.600 C 767.450 354.500 767.350 354.600 767.450 354.600 H 773.250 C 773.350 354.600 773.250 354.500 773.250 354.600 V 357.500 C 773.250 357.555 773.295 357.600 773.350 357.600 H 779.350 C 779.405 357.600 779.450 357.555 779.450 357.500 V 354.600 C 779.450 354.500 779.350 354.600 779.450 354.600 H 785.250 C 785.350 354.600 785.250 354.500 785.250 354.600 V 357.500 C 785.250 357.555 785.295 357.600 785.350 357.600 H 791.350 C 791.405 357.600 791.450 357.555 791.450 357.500 V 354.600 C 791.450 354.500 791.350 354.600 791.450 354.600 H 797.250 C 797.350 354.600 797.250 354.500 797.250 354.600 V 357.500 C 797.250 357.555 797.295 357.600 797.350 357.600 H 803.350 C 803.405 357.600 803.450 357.555 803.450 357.500 V 354.600 C 803.450 354.500 803.350 354.600 803.450 354.600 H 809.250 C 809.350 354.600 809.250 354.500 809.250 354.600 V 357.500 C 809.250 357.555 809.295 357.600 809.350 357.600 H 815.350 C 815.405 357.600 815.450 357.555 815.450 357.500 V 354.600 C 815.450 354.500 815.350 354.600 815.450 354.600 H 821.250 C 821.350 354.600 821.250 354.500 821.250 354.600 V 357.500 C 821.250 357.555 821.295 357.600 821.350 357.600 H 827.350 C 827.405 357.600 827.450 357.555 827.450 357.500 V 354.600 C 827.450 354.500 827.350 354.600 827.450 354.600 H 834.900 C 834.955 354.600 835.000 354.555 835.000 354.500 V 347.600 C 835.000 347.500 834.900 347.600 835.000 347.600 H 837.900 C 837.955 347.600 838.000 347.555 838.000 347.500 V 341.500 C 838.000 341.445 837.955 341.400 837.900 341.400 H 835.000 C 834.900 341.400 835.000 341.500 835.000 341.400 V 335.600 C 835.000 335.500 834.900 335.600 835.000 335.600 H 837.900 C 837.955 335.600 838.000 335.555 838.000 335.500 V 329.500 C 838.000 329.445 837.955 329.400 837.900 329.400 H 835.000 C 834.900 329.400 835.000 329.500 835.000 329.400 V 323.600 C 835.000 323.500 834.900 323.600 835.000 323.600 H 837.900 C 837.955 323.600 838.000 323.555 838.000 323.500 V 317.500 C 838.000 317.445 837.955 317.400 837.900 317.400 H 835.000 C 834.900 317.400 835.000 317.500 835.000 317.400 V 310.500 C 835.000 310.445 834.955 310.400 834.900 310.400 H 597.800 C 597.745 310.400 597.700 310.445 597.700 310.500 V 317.400 C 597.700 317.500 597.800 317.400 597.700 317.400 H 594.800 C 594.745 317.400 594.700 317.445 594.700 317.500 V 323.500 C 594.700 323.555 594.745 323.600 594.800 323.600 H 597.700 C 597.800 323.600 597.700 323.500 597.700 323.600 V 329.400 C 597.700 329.500 597.800 329.400 597.700 329.400 H 594.800 C 594.745 329.400 594.700 329.445 594.700 329.500 V 335.500 C 594.700 335.555 594.745 335.600 594.800 335.600 H 597.700 C 597.800 335.600 597.700 335.500 597.700 335.600 V 341.400 C 597.700 341.500 597.800 341.400 597.700 341.400 H 594.800 C 594.745 341.400 594.700 341.445 594.700 341.500 V 347.500 C 594.700 347.555 594.745 347.600 594.800 347.600 H 597.700 C 597.800 347.600 597.700 347.500 597.700 347.600 V 354.500 C 597.700 354.555 597.745 354.600 597.800 354.600 Z"
       stroke="rgb(0,0,0)"
       stroke-width="0.20"
       id="path193" />
  </g>
  <g
     id="p-5"
     style="fill:none;stroke-linecap:round;stroke-linejoin:round;">
    <path
       d="M 13.400 305.900 H 22.800 C 22.900 305.900 22.800 305.800 22.800 305.900 V 308.800 C 22.800 308.855 22.845 308.900 22.900 308.900 H 28.900 C 28.955 308.900 29.000 308.855 29.000 308.800 V 305.900 C 29.000 305.800 28.900 305.900 29.000 305.900 H 34.800 C 34.900 305.900 34.800 305.800 34.800 305.900 V 308.800 C 34.800 308.855 34.845 308.900 34.900 308.900 H 40.900 C 40.955 308.900 41.000 308.855 41.000 308.800 V 305.900 C 41.000 305.800 40.900 305.900 41.000 305.900 H 46.800 C 46.900 305.900 46.800 305.800 46.800 305.900 V 308.800 C 46.800 308.855 46.845 308.900 46.900 308.900 H 52.900 C 52.955 308.900 53.000 308.855 53.000 308.800 V 305.900 C 53.000 305.800 52.900 305.900 53.000 305.900 H 58.800 C 58.900 305.900 58.800 305.800 58.800 305.900 V 308.800 C 58.800 308.855 58.845 308.900 58.900 308.900 H 64.900 C 64.955 308.900 65.000 308.855 65.000 308.800 V 305.900 C 65.000 305.800 64.900 305.900 65.000 305.900 H 70.800 C 70.900 305.900 70.800 305.800 70.800 305.900 V 308.800 C 70.800 308.855 70.845 308.900 70.900 308.900 H 76.900 C 76.955 308.900 77.000 308.855 77.000 308.800 V 305.900 C 77.000 305.800 76.900 305.900 77.000 305.900 H 82.800 C 82.900 305.900 82.800 305.800 82.800 305.900 V 308.800 C 82.800 308.855 82.845 308.900 82.900 308.900 H 88.900 C 88.955 308.900 89.000 308.855 89.000 308.800 V 305.900 C 89.000 305.800 88.900 305.900 89.000 305.900 H 94.800 C 94.900 305.900 94.800 305.800 94.800 305.900 V 308.800 C 94.800 308.855 94.845 308.900 94.900 308.900 H 100.900 C 100.955 308.900 101.000 308.855 101.000 308.800 V 305.900 C 101.000 305.800 100.900 305.900 101.000 305.900 H 106.800 C 106.900 305.900 106.800 305.800 106.800 305.900 V 308.800 C 106.800 308.855 106.845 308.900 106.900 308.900 H 112.900 C 112.955 308.900 113.000 308.855 113.000 308.800 V 305.900 C 113.000 305.800 112.900 305.900 113.000 305.900 H 118.800 C 118.900 305.900 118.800 305.800 118.800 305.900 V 308.800 C 118.800 308.855 118.845 308.900 118.900 308.900 H 124.900 C 124.955 308.900 125.000 308.855 125.000 308.800 V 305.900 C 125.000 305.800 124.900 305.900 125.000 305.900 H 130.800 C 130.900 305.900 130.800 305.800 130.800 305.900 V 308.800 C 130.800 308.855 130.845 308.900 130.900 308.900 H 136.900 C 136.955 308.900 137.000 308.855 137.000 308.800 V 305.900 C 137.000 305.800 136.900 305.900 137.000 305.900 H 142.800 C 142.900 305.900 142.800 305.800 142.800 305.900 V 308.800 C 142.800 308.855 142.845 308.900 142.900 308.900 H 148.900 C 148.955 308.900 149.000 308.855 149.000 308.800 V 305.900 C 149.000 305.800 148.900 305.900 149.000 305.900 H 154.800 C 154.900 305.900 154.800 305.800 154.800 305.900 V 308.800 C 154.800 308.855 154.845 308.900 154.900 308.900 H 160.900 C 160.955 308.900 161.000 308.855 161.000 308.800 V 305.900 C 161.000 305.800 160.900 305.900 161.000 305.900 H 166.800 C 166.900 305.900 166.800 305.800 166.800 305.900 V 308.800 C 166.800 308.855 166.845 308.900 166.900 308.900 H 172.900 C 172.955 308.900 173.000 308.855 173.000 308.800 V 305.900 C 173.000 305.800 172.900 305.900 173.000 305.900 H 182.400 H 185.400 C 185.455 305.900 185.500 305.855 185.500 305.800 V 298.800 C 185.500 298.745 185.455 298.700 185.400 298.700 H 182.500 C 182.400 298.700 182.500 298.800 182.500 298.700 V 292.900 C 182.500 292.800 182.400 292.900 182.500 292.900 H 185.400 C 185.455 292.900 185.500 292.855 185.500 292.800 V 286.800 C 185.500 286.745 185.455 286.700 185.400 286.700 H 182.500 C 182.400 286.700 182.500 286.800 182.500 286.700 V 280.900 C 182.500 280.800 182.400 280.900 182.500 280.900 H 185.400 C 185.455 280.900 185.500 280.855 185.500 280.800 V 274.800 C 185.500 274.745 185.455 274.700 185.400 274.700 H 182.500 C 182.400 274.700 182.500 274.800 182.500 274.700 V 268.900 C 182.500 268.800 182.400 268.900 182.500 268.900 H 185.400 C 185.455 268.900 185.500 268.855 185.500 268.800 V 261.800 C 185.500 261.745 185.455 261.700 185.400 261.700 H 182.400 H 13.400 H 10.400 C 10.345 261.700 10.300 261.745 10.300 261.800 V 268.800 C 10.300 268.855 10.345 268.900 10.400 268.900 H 13.300 C 13.400 268.900 13.300 268.800 13.300 268.900 V 274.700 C 13.300 274.800 13.400 274.700 13.300 274.700 H 10.400 C 10.345 274.700 10.300 274.745 10.300 274.800 V 280.800 C 10.300 280.855 10.345 280.900 10.400 280.900 H 13.300 C 13.400 280.900 13.300 280.800 13.300 280.900 V 286.700 C 13.300 286.800 13.400 286.700 13.300 286.700 H 10.400 C 10.345 286.700 10.300 286.745 10.300 286.800 V 292.800 C 10.300 292.855 10.345 292.900 10.400 292.900 H 13.300 C 13.400 292.900 13.300 292.800 13.300 292.900 V 298.700 C 13.300 298.800 13.400 298.700 13.300 298.700 H 10.400 C 10.345 298.700 10.300 298.745 10.300 298.800 V 305.800 C 10.300 305.855 10.345 305.900 10.400 305.900 H 13.400 Z"
       stroke="rgb(0,0,0)"
       stroke-width="0.20"
       id="path196" />
  </g>
  <g
     id="p-6"
     style="fill:none;stroke-linecap:round;stroke-linejoin:round;">
    <path
       d="M 190.100 305.900 H 201.000 C 201.100 305.900 201.000 305.800 201.000 305.900 V 308.800 C 201.000 308.855 201.045 308.900 201.100 308.900 H 207.100 C 207.155 308.900 207.200 308.855 207.200 308.800 V 305.900 C 207.200 305.800 207.100 305.900 207.200 305.900 H 213.000 C 213.100 305.900 213.000 305.800 213.000 305.900 V 308.800 C 213.000 308.855 213.045 308.900 213.100 308.900 H 219.100 C 219.155 308.900 219.200 308.855 219.200 308.800 V 305.900 C 219.200 305.800 219.100 305.900 219.200 305.900 H 225.000 C 225.100 305.900 225.000 305.800 225.000 305.900 V 308.800 C 225.000 308.855 225.045 308.900 225.100 308.900 H 231.100 C 231.155 308.900 231.200 308.855 231.200 308.800 V 305.900 C 231.200 305.800 231.100 305.900 231.200 305.900 H 237.000 C 237.100 305.900 237.000 305.800 237.000 305.900 V 308.800 C 237.000 308.855 237.045 308.900 237.100 308.900 H 243.100 C 243.155 308.900 243.200 308.855 243.200 308.800 V 305.900 C 243.200 305.800 243.100 305.900 243.200 305.900 H 249.000 C 249.100 305.900 249.000 305.800 249.000 305.900 V 308.800 C 249.000 308.855 249.045 308.900 249.100 308.900 H 255.100 C 255.155 308.900 255.200 308.855 255.200 308.800 V 305.900 C 255.200 305.800 255.100 305.900 255.200 305.900 H 261.000 C 261.100 305.900 261.000 305.800 261.000 305.900 V 308.800 C 261.000 308.855 261.045 308.900 261.100 308.900 H 267.100 C 267.155 308.900 267.200 308.855 267.200 308.800 V 305.900 C 267.200 305.800 267.100 305.900 267.200 305.900 H 273.000 C 273.100 305.900 273.000 305.800 273.000 305.900 V 308.800 C 273.000 308.855 273.045 308.900 273.100 308.900 H 279.100 C 279.155 308.900 279.200 308.855 279.200 308.800 V 305.900 C 279.200 305.800 279.100 305.900 279.200 305.900 H 285.000 C 285.100 305.900 285.000 305.800 285.000 305.900 V 308.800 C 285.000 308.855 285.045 308.900 285.100 308.900 H 291.100 C 291.155 308.900 291.200 308.855 291.200 308.800 V 305.900 C 291.200 305.800 291.100 305.900 291.200 305.900 H 297.000 C 297.100 305.900 297.000 305.800 297.000 305.900 V 308.800 C 297.000 308.855 297.045 308.900 297.100 308.900 H 303.100 C 303.155 308.900 303.200 308.855 303.200 308.800 V 305.900 C 303.200 305.800 303.100 305.900 303.200 305.900 H 309.000 C 309.100 305.900 309.000 305.800 309.000 305.900 V 308.800 C 309.000 308.855 309.045 308.900 309.100 308.900 H 315.100 C 315.155 308.900 315.200 308.855 315.200 308.800 V 305.900 C 315.200 305.800 315.100 305.900 315.200 305.900 H 321.000 C 321.100 305.900 321.000 305.800 321.000 305.900 V 308.800 C 321.000 308.855 321.045 308.900 321.100 308.900 H 327.100 C 327.155 308.900 327.200 308.855 327.200 308.800 V 305.900 C 327.200 305.800 327.100 305.900 327.200 305.900 H 333.000 C 333.100 305.900 333.000 305.800 333.000 305.900 V 308.800 C 333.000 308.855 333.045 308.900 333.100 308.900 H 339.100 C 339.155 308.900 339.200 308.855 339.200 308.800 V 305.900 C 339.200 305.800 339.100 305.900 339.200 305.900 H 345.000 C 345.100 305.900 345.000 305.800 345.000 305.900 V 308.800 C 345.000 308.855 345.045 308.900 345.100 308.900 H 351.100 C 351.155 308.900 351.200 308.855 351.200 308.800 V 305.900 C 351.200 305.800 351.100 305.900 351.200 305.900 H 357.000 C 357.100 305.900 357.000 305.800 357.000 305.900 V 308.800 C 357.000 308.855 357.045 308.900 357.100 308.900 H 363.100 C 363.155 308.900 363.200 308.855 363.200 308.800 V 305.900 C 363.200 305.800 363.100 305.900 363.200 305.900 H 369.000 C 369.100 305.900 369.000 305.800 369.000 305.900 V 308.800 C 369.000 308.855 369.045 308.900 369.100 308.900 H 375.100 C 375.155 308.900 375.200 308.855 375.200 308.800 V 305.900 C 375.200 305.800 375.100 305.900 375.200 305.900 H 381.000 C 381.100 305.900 381.000 305.800 381.000 305.900 V 308.800 C 381.000 308.855 381.045 308.900 381.100 308.900 H 387.100 C 387.155 308.900 387.200 308.855 387.200 308.800 V 305.900 C 387.200 305.800 387.100 305.900 387.200 305.900 H 393.000 C 393.100 305.900 393.000 305.800 393.000 305.900 V 308.800 C 393.000 308.855 393.045 308.900 393.100 308.900 H 399.100 C 399.155 308.900 399.200 308.855 399.200 308.800 V 305.900 C 399.200 305.800 399.100 305.900 399.200 305.900 H 405.000 C 405.100 305.900 405.000 305.800 405.000 305.900 V 308.800 C 405.000 308.855 405.045 308.900 405.100 308.900 H 411.100 C 411.155 308.900 411.200 308.855 411.200 308.800 V 305.900 C 411.200 305.800 411.100 305.900 411.200 305.900 H 417.000 C 417.100 305.900 417.000 305.800 417.000 305.900 V 308.800 C 417.000 308.855 417.045 308.900 417.100 308.900 H 423.100 C 423.155 308.900 423.200 308.855 423.200 308.800 V 305.900 C 423.200 305.800 423.100 305.900 423.200 305.900 H 434.100 C 434.155 305.900 434.200 305.855 434.200 305.800 V 298.900 C 434.200 298.800 434.100 298.900 434.200 298.900 H 437.100 C 437.155 298.900 437.200 298.855 437.200 298.800 V 292.800 C 437.200 292.745 437.155 292.700 437.100 292.700 H 434.200 C 434.100 292.700 434.200 292.800 434.200 292.700 V 286.900 C 434.200 286.800 434.100 286.900 434.200 286.900 H 437.100 C 437.155 286.900 437.200 286.855 437.200 286.800 V 280.800 C 437.200 280.745 437.155 280.700 437.100 280.700 H 434.200 C 434.100 280.700 434.200 280.800 434.200 280.700 V 274.900 C 434.200 274.800 434.100 274.900 434.200 274.900 H 437.100 C 437.155 274.900 437.200 274.855 437.200 274.800 V 268.800 C 437.200 268.745 437.155 268.700 437.100 268.700 H 434.200 C 434.100 268.700 434.200 268.800 434.200 268.700 V 261.800 C 434.200 261.745 434.155 261.700 434.100 261.700 H 190.100 C 190.045 261.700 190.000 261.745 190.000 261.800 V 268.700 C 190.000 268.800 190.100 268.700 190.000 268.700 H 187.100 C 187.045 268.700 187.000 268.745 187.000 268.800 V 274.800 C 187.000 274.855 187.045 274.900 187.100 274.900 H 190.000 C 190.100 274.900 190.000 274.800 190.000 274.900 V 280.700 C 190.000 280.800 190.100 280.700 190.000 280.700 H 187.100 C 187.045 280.700 187.000 280.745 187.000 280.800 V 286.800 C 187.000 286.855 187.045 286.900 187.100 286.900 H 190.000 C 190.100 286.900 190.000 286.800 190.000 286.900 V 292.700 C 190.000 292.800 190.100 292.700 190.000 292.700 H 187.100 C 187.045 292.700 187.000 292.745 187.000 292.800 V 298.800 C 187.000 298.855 187.045 298.900 187.100 298.900 H 190.000 C 190.100 298.900 190.000 298.800 190.000 298.900 V 305.800 C 190.000 305.855 190.045 305.900 190.100 305.900 Z"
       stroke="rgb(0,0,0)"
       stroke-width="0.20"
       id="path199" />
  </g>
  <g
     id="p-7"
     style="fill:none;stroke-linecap:round;stroke-linejoin:round;">
    <path
       d="M 441.800 305.900 H 451.200 C 451.300 305.900 451.200 305.800 451.200 305.900 V 308.800 C 451.200 308.855 451.245 308.900 451.300 308.900 H 457.300 C 457.355 308.900 457.400 308.855 457.400 308.800 V 305.900 C 457.400 305.800 457.300 305.900 457.400 305.900 H 463.200 C 463.300 305.900 463.200 305.800 463.200 305.900 V 308.800 C 463.200 308.855 463.245 308.900 463.300 308.900 H 469.300 C 469.355 308.900 469.400 308.855 469.400 308.800 V 305.900 C 469.400 305.800 469.300 305.900 469.400 305.900 H 475.200 C 475.300 305.900 475.200 305.800 475.200 305.900 V 308.800 C 475.200 308.855 475.245 308.900 475.300 308.900 H 481.300 C 481.355 308.900 481.400 308.855 481.400 308.800 V 305.900 C 481.400 305.800 481.300 305.900 481.400 305.900 H 487.200 C 487.300 305.900 487.200 305.800 487.200 305.900 V 308.800 C 487.200 308.855 487.245 308.900 487.300 308.900 H 493.300 C 493.355 308.900 493.400 308.855 493.400 308.800 V 305.900 C 493.400 305.800 493.300 305.900 493.400 305.900 H 499.200 C 499.300 305.900 499.200 305.800 499.200 305.900 V 308.800 C 499.200 308.855 499.245 308.900 499.300 308.900 H 505.300 C 505.355 308.900 505.400 308.855 505.400 308.800 V 305.900 C 505.400 305.800 505.300 305.900 505.400 305.900 H 511.200 C 511.300 305.900 511.200 305.800 511.200 305.900 V 308.800 C 511.200 308.855 511.245 308.900 511.300 308.900 H 517.300 C 517.355 308.900 517.400 308.855 517.400 308.800 V 305.900 C 517.400 305.800 517.300 305.900 517.400 305.900 H 523.200 C 523.300 305.900 523.200 305.800 523.200 305.900 V 308.800 C 523.200 308.855 523.245 308.900 523.300 308.900 H 529.300 C 529.355 308.900 529.400 308.855 529.400 308.800 V 305.900 C 529.400 305.800 529.300 305.900 529.400 305.900 H 535.200 C 535.300 305.900 535.200 305.800 535.200 305.900 V 308.800 C 535.200 308.855 535.245 308.900 535.300 308.900 H 541.300 C 541.355 308.900 541.400 308.855 541.400 308.800 V 305.900 C 541.400 305.800 541.300 305.900 541.400 305.900 H 547.200 C 547.300 305.900 547.200 305.800 547.200 305.900 V 308.800 C 547.200 308.855 547.245 308.900 547.300 308.900 H 553.300 C 553.355 308.900 553.400 308.855 553.400 308.800 V 305.900 C 553.400 305.800 553.300 305.900 553.400 305.900 H 559.200 C 559.300 305.900 559.200 305.800 559.200 305.900 V 308.800 C 559.200 308.855 559.245 308.900 559.300 308.900 H 565.300 C 565.355 308.900 565.400 308.855 565.400 308.800 V 305.900 C 565.400 305.800 565.300 305.900 565.400 305.900 H 571.200 C 571.300 305.900 571.200 305.800 571.200 305.900 V 308.800 C 571.200 308.855 571.245 308.900 571.300 308.900 H 577.300 C 577.355 308.900 577.400 308.855 577.400 308.800 V 305.900 C 577.400 305.800 577.300 305.900 577.400 305.900 H 583.200 C 583.300 305.900 583.200 305.800 583.200 305.900 V 308.800 C 583.200 308.855 583.245 308.900 583.300 308.900 H 589.300 C 589.355 308.900 589.400 308.855 589.400 308.800 V 305.900 C 589.400 305.800 589.300 305.900 589.400 305.900 H 595.200 C 595.300 305.900 595.200 305.800 595.200 305.900 V 308.800 C 595.200 308.855 595.245 308.900 595.300 308.900 H 601.300 C 601.355 308.900 601.400 308.855 601.400 308.800 V 305.900 C 601.400 305.800 601.300 305.900 601.400 305.900 H 610.800 H 613.800 C 613.855 305.900 613.900 305.855 613.900 305.800 V 298.800 C 613.900 298.745 613.855 298.700 613.800 298.700 H 610.900 C 610.800 298.700 610.900 298.800 610.900 298.700 V 292.900 C 610.900 292.800 610.800 292.900 610.900 292.900 H 613.800 C 613.855 292.900 613.900 292.855 613.900 292.800 V 286.800 C 613.900 286.745 613.855 286.700 613.800 286.700 H 610.900 C 610.800 286.700 610.900 286.800 610.900 286.700 V 280.900 C 610.900 280.800 610.800 280.900 610.900 280.900 H 613.800 C 613.855 280.900 613.900 280.855 613.900 280.800 V 274.800 C 613.900 274.745 613.855 274.700 613.800 274.700 H 610.900 C 610.800 274.700 610.900 274.800 610.900 274.700 V 268.900 C 610.900 268.800 610.800 268.900 610.900 268.900 H 613.800 C 613.855 268.900 613.900 268.855 613.900 268.800 V 261.800 C 613.900 261.745 613.855 261.700 613.800 261.700 H 610.800 H 441.800 H 438.800 C 438.745 261.700 438.700 261.745 438.700 261.800 V 268.800 C 438.700 268.855 438.745 268.900 438.800 268.900 H 441.700 C 441.800 268.900 441.700 268.800 441.700 268.900 V 274.700 C 441.700 274.800 441.800 274.700 441.700 274.700 H 438.800 C 438.745 274.700 438.700 274.745 438.700 274.800 V 280.800 C 438.700 280.855 438.745 280.900 438.800 280.900 H 441.700 C 441.800 280.900 441.700 280.800 441.700 280.900 V 286.700 C 441.700 286.800 441.800 286.700 441.700 286.700 H 438.800 C 438.745 286.700 438.700 286.745 438.700 286.800 V 292.800 C 438.700 292.855 438.745 292.900 438.800 292.900 H 441.700 C 441.800 292.900 441.700 292.800 441.700 292.900 V 298.700 C 441.700 298.800 441.800 298.700 441.700 298.700 H 438.800 C 438.745 298.700 438.700 298.745 438.700 298.800 V 305.800 C 438.700 305.855 438.745 305.900 438.800 305.900 H 441.800 Z"
       stroke="rgb(0,0,0)"
       stroke-width="0.20"
       id="path202" />
  </g>
  <g
     id="p-8"
     style="fill:none;stroke-linecap:round;stroke-linejoin:round;">
    <path
       d="M 618.500 305.900 H 629.400 C 629.500 305.900 629.400 305.800 629.400 305.900 V 308.800 C 629.400 308.855 629.445 308.900 629.500 308.900 H 635.500 C 635.555 308.900 635.600 308.855 635.600 308.800 V 305.900 C 635.600 305.800 635.500 305.900 635.600 305.900 H 641.400 C 641.500 305.900 641.400 305.800 641.400 305.900 V 308.800 C 641.400 308.855 641.445 308.900 641.500 308.900 H 647.500 C 647.555 308.900 647.600 308.855 647.600 308.800 V 305.900 C 647.600 305.800 647.500 305.900 647.600 305.900 H 653.400 C 653.500 305.900 653.400 305.800 653.400 305.900 V 308.800 C 653.400 308.855 653.445 308.900 653.500 308.900 H 659.500 C 659.555 308.900 659.600 308.855 659.600 308.800 V 305.900 C 659.600 305.800 659.500 305.900 659.600 305.900 H 665.400 C 665.500 305.900 665.400 305.800 665.400 305.900 V 308.800 C 665.400 308.855 665.445 308.900 665.500 308.900 H 671.500 C 671.555 308.900 671.600 308.855 671.600 308.800 V 305.900 C 671.600 305.800 671.500 305.900 671.600 305.900 H 677.400 C 677.500 305.900 677.400 305.800 677.400 305.900 V 308.800 C 677.400 308.855 677.445 308.900 677.500 308.900 H 683.500 C 683.555 308.900 683.600 308.855 683.600 308.800 V 305.900 C 683.600 305.800 683.500 305.900 683.600 305.900 H 689.400 C 689.500 305.900 689.400 305.800 689.400 305.900 V 308.800 C 689.400 308.855 689.445 308.900 689.500 308.900 H 695.500 C 695.555 308.900 695.600 308.855 695.600 308.800 V 305.900 C 695.600 305.800 695.500 305.900 695.600 305.900 H 701.400 C 701.500 305.900 701.400 305.800 701.400 305.900 V 308.800 C 701.400 308.855 701.445 308.900 701.500 308.900 H 707.500 C 707.555 308.900 707.600 308.855 707.600 308.800 V 305.900 C 707.600 305.800 707.500 305.900 707.600 305.900 H 713.400 C 713.500 305.900 713.400 305.800 713.400 305.900 V 308.800 C 713.400 308.855 713.445 308.900 713.500 308.900 H 719.500 C 719.555 308.900 719.600 308.855 719.600 308.800 V 305.900 C 719.600 305.800 719.500 305.900 719.600 305.900 H 725.400 C 725.500 305.900 725.400 305.800 725.400 305.900 V 308.800 C 725.400 308.855 725.445 308.900 725.500 308.900 H 731.500 C 731.555 308.900 731.600 308.855 731.600 308.800 V 305.900 C 731.600 305.800 731.500 305.900 731.600 305.900 H 737.400 C 737.500 305.900 737.400 305.800 737.400 305.900 V 308.800 C 737.400 308.855 737.445 308.900 737.500 308.900 H 743.500 C 743.555 308.900 743.600 308.855 743.600 308.800 V 305.900 C 743.600 305.800 743.500 305.900 743.600 305.900 H 749.400 C 749.500 305.900 749.400 305.800 749.400 305.900 V 308.800 C 749.400 308.855 749.445 308.900 749.500 308.900 H 755.500 C 755.555 308.900 755.600 308.855 755.600 308.800 V 305.900 C 755.600 305.800 755.500 305.900 755.600 305.900 H 761.400 C 761.500 305.900 761.400 305.800 761.400 305.900 V 308.800 C 761.400 308.855 761.445 308.900 761.500 308.900 H 767.500 C 767.555 308.900 767.600 308.855 767.600 308.800 V 305.900 C 767.600 305.800 767.500 305.900 767.600 305.900 H 773.400 C 773.500 305.900 773.400 305.800 773.400 305.900 V 308.800 C 773.400 308.855 773.445 308.900 773.500 308.900 H 779.500 C 779.555 308.900 779.600 308.855 779.600 308.800 V 305.900 C 779.600 305.800 779.500 305.900 779.600 305.900 H 785.400 C 785.500 305.900 785.400 305.800 785.400 305.900 V 308.800 C 785.400 308.855 785.445 308.900 785.500 308.900 H 791.500 C 791.555 308.900 791.600 308.855 791.600 308.800 V 305.900 C 791.600 305.800 791.500 305.900 791.600 305.900 H 797.400 C 797.500 305.900 797.400 305.800 797.400 305.900 V 308.800 C 797.400 308.855 797.445 308.900 797.500 308.900 H 803.500 C 803.555 308.900 803.600 308.855 803.600 308.800 V 305.900 C 803.600 305.800 803.500 305.900 803.600 305.900 H 809.400 C 809.500 305.900 809.400 305.800 809.400 305.900 V 308.800 C 809.400 308.855 809.445 308.900 809.500 308.900 H 815.500 C 815.555 308.900 815.600 308.855 815.600 308.800 V 305.900 C 815.600 305.800 815.500 305.900 815.600 305.900 H 821.400 C 821.500 305.900 821.400 305.800 821.400 305.900 V 308.800 C 821.400 308.855 821.445 308.900 821.500 308.900 H 827.500 C 827.555 308.900 827.600 308.855 827.600 308.800 V 305.900 C 827.600 305.800 827.500 305.900 827.600 305.900 H 833.400 C 833.500 305.900 833.400 305.800 833.400 305.900 V 308.800 C 833.400 308.855 833.445 308.900 833.500 308.900 H 839.500 C 839.555 308.900 839.600 308.855 839.600 308.800 V 305.900 C 839.600 305.800 839.500 305.900 839.600 305.900 H 845.400 C 845.500 305.900 845.400 305.800 845.400 305.900 V 308.800 C 845.400 308.855 845.445 308.900 845.500 308.900 H 851.500 C 851.555 308.900 851.600 308.855 851.600 308.800 V 305.900 C 851.600 305.800 851.500 305.900 851.600 305.900 H 862.500 C 862.555 305.900 862.600 305.855 862.600 305.800 V 298.900 C 862.600 298.800 862.500 298.900 862.600 298.900 H 865.500 C 865.555 298.900 865.600 298.855 865.600 298.800 V 292.800 C 865.600 292.745 865.555 292.700 865.500 292.700 H 862.600 C 862.500 292.700 862.600 292.800 862.600 292.700 V 286.900 C 862.600 286.800 862.500 286.900 862.600 286.900 H 865.500 C 865.555 286.900 865.600 286.855 865.600 286.800 V 280.800 C 865.600 280.745 865.555 280.700 865.500 280.700 H 862.600 C 862.500 280.700 862.600 280.800 862.600 280.700 V 274.900 C 862.600 274.800 862.500 274.900 862.600 274.900 H 865.500 C 865.555 274.900 865.600 274.855 865.600 274.800 V 268.800 C 865.600 268.745 865.555 268.700 865.500 268.700 H 862.600 C 862.500 268.700 862.600 268.800 862.600 268.700 V 261.800 C 862.600 261.745 862.555 261.700 862.500 261.700 H 618.500 C 618.445 261.700 618.400 261.745 618.400 261.800 V 268.700 C 618.400 268.800 618.500 268.700 618.400 268.700 H 615.500 C 615.445 268.700 615.400 268.745 615.400 268.800 V 274.800 C 615.400 274.855 615.445 274.900 615.500 274.900 H 618.400 C 618.500 274.900 618.400 274.800 618.400 274.900 V 280.700 C 618.400 280.800 618.500 280.700 618.400 280.700 H 615.500 C 615.445 280.700 615.400 280.745 615.400 280.800 V 286.800 C 615.400 286.855 615.445 286.900 615.500 286.900 H 618.400 C 618.500 286.900 618.400 286.800 618.400 286.900 V 292.700 C 618.400 292.800 618.500 292.700 618.400 292.700 H 615.500 C 615.445 292.700 615.400 292.745 615.400 292.800 V 298.800 C 615.400 298.855 615.445 298.900 615.500 298.900 H 618.400 C 618.500 298.900 618.400 298.800 618.400 298.900 V 305.800 C 618.400 305.855 618.445 305.900 618.500 305.900 Z"
       stroke="rgb(0,0,0)"
       stroke-width="0.20"
       id="path205" />
  </g>
  <g
     id="p-9"
     style="fill:none;stroke-linecap:round;stroke-linejoin:round;">
    <path
       d="M 25.900 256.550 H 23.000 C 22.900 256.550 23.000 256.650 23.000 256.550 V 253.750 C 23.000 253.650 22.900 253.750 23.000 253.750 H 28.800 C 28.900 253.750 28.800 253.650 28.800 253.750 V 256.550 C 28.800 256.650 28.900 256.550 28.800 256.550 H 25.900 Z"
       stroke="rgb(0,0,255)"
       stroke-width="0.20"
       id="path208" />
    <path
       d="M 37.900 256.550 H 35.000 C 34.900 256.550 35.000 256.650 35.000 256.550 V 253.750 C 35.000 253.650 34.900 253.750 35.000 253.750 H 40.800 C 40.900 253.750 40.800 253.650 40.800 253.750 V 256.550 C 40.800 256.650 40.900 256.550 40.800 256.550 H 37.900 Z"
       stroke="rgb(0,0,255)"
       stroke-width="0.20"
       id="path210" />
    <path
       d="M 49.900 256.550 H 47.000 C 46.900 256.550 47.000 256.650 47.000 256.550 V 253.750 C 47.000 253.650 46.900 253.750 47.000 253.750 H 52.800 C 52.900 253.750 52.800 253.650 52.800 253.750 V 256.550 C 52.800 256.650 52.900 256.550 52.800 256.550 H 49.900 Z"
       stroke="rgb(0,0,255)"
       stroke-width="0.20"
       id="path212" />
    <path
       d="M 61.900 256.550 H 59.000 C 58.900 256.550 59.000 256.650 59.000 256.550 V 253.750 C 59.000 253.650 58.900 253.750 59.000 253.750 H 64.800 C 64.900 253.750 64.800 253.650 64.800 253.750 V 256.550 C 64.800 256.650 64.900 256.550 64.800 256.550 H 61.900 Z"
       stroke="rgb(0,0,255)"
       stroke-width="0.20"
       id="path214" />
    <path
       d="M 73.900 256.550 H 71.000 C 70.900 256.550 71.000 256.650 71.000 256.550 V 253.750 C 71.000 253.650 70.900 253.750 71.000 253.750 H 76.800 C 76.900 253.750 76.800 253.650 76.800 253.750 V 256.550 C 76.800 256.650 76.900 256.550 76.800 256.550 H 73.900 Z"
       stroke="rgb(0,0,255)"
       stroke-width="0.20"
       id="path216" />
    <path
       d="M 85.900 256.550 H 83.000 C 82.900 256.550 83.000 256.650 83.000 256.550 V 253.750 C 83.000 253.650 82.900 253.750 83.000 253.750 H 88.800 C 88.900 253.750 88.800 253.650 88.800 253.750 V 256.550 C 88.800 256.650 88.900 256.550 88.800 256.550 H 85.900 Z"
       stroke="rgb(0,0,255)"
       stroke-width="0.20"
       id="path218" />
    <path
       d="M 97.900 256.550 H 95.000 C 94.900 256.550 95.000 256.650 95.000 256.550 V 253.750 C 95.000 253.650 94.900 253.750 95.000 253.750 H 100.800 C 100.900 253.750 100.800 253.650 100.800 253.750 V 256.550 C 100.800 256.650 100.900 256.550 100.800 256.550 H 97.900 Z"
       stroke="rgb(0,0,255)"
       stroke-width="0.20"
       id="path220" />
    <path
       d="M 109.900 256.550 H 107.000 C 106.900 256.550 107.000 256.650 107.000 256.550 V 253.750 C 107.000 253.650 106.900 253.750 107.000 253.750 H 112.800 C 112.900 253.750 112.800 253.650 112.800 253.750 V 256.550 C 112.800 256.650 112.900 256.550 112.800 256.550 H 109.900 Z"
       stroke="rgb(0,0,255)"
       stroke-width="0.20"
       id="path222" />
    <path
       d="M 121.900 256.550 H 119.000 C 118.900 256.550 119.000 256.650 119.000 256.550 V 253.750 C 119.000 253.650 118.900 253.750 119.000 253.750 H 124.800 C 124.900 253.750 124.800 253.650 124.800 253.750 V 256.550 C 124.800 256.650 124.900 256.550 124.800 256.550 H 121.900 Z"
       stroke="rgb(0,0,255)"
       stroke-width="0.20"
       id="path224" />
    <path
       d="M 133.900 256.550 H 131.000 C 130.900 256.550 131.000 256.650 131.000 256.550 V 253.750 C 131.000 253.650 130.900 253.750 131.000 253.750 H 136.800 C 136.900 253.750 136.800 253.650 136.800 253.750 V 256.550 C 136.800 256.650 136.900 256.550 136.800 256.550 H 133.900 Z"
       stroke="rgb(0,0,255)"
       stroke-width="0.20"
       id="path226" />
    <path
       d="M 145.900 256.550 H 143.000 C 142.900 256.550 143.000 256.650 143.000 256.550 V 253.750 C 143.000 253.650 142.900 253.750 143.000 253.750 H 148.800 C 148.900 253.750 148.800 253.650 148.800 253.750 V 256.550 C 148.800 256.650 148.900 256.550 148.800 256.550 H 145.900 Z"
       stroke="rgb(0,0,255)"
       stroke-width="0.20"
       id="path228" />
    <path
       d="M 157.900 256.550 H 155.000 C 154.900 256.550 155.000 256.650 155.000 256.550 V 253.750 C 155.000 253.650 154.900 253.750 155.000 253.750 H 160.800 C 160.900 253.750 160.800 253.650 160.800 253.750 V 256.550 C 160.800 256.650 160.900 256.550 160.800 256.550 H 157.900 Z"
       stroke="rgb(0,0,255)"
       stroke-width="0.20"
       id="path230" />
    <path
       d="M 169.900 256.550 H 167.000 C 166.900 256.550 167.000 256.650 167.000 256.550 V 253.750 C 167.000 253.650 166.900 253.750 167.000 253.750 H 172.800 C 172.900 253.750 172.800 253.650 172.800 253.750 V 256.550 C 172.800 256.650 172.900 256.550 172.800 256.550 H 169.900 Z"
       stroke="rgb(0,0,255)"
       stroke-width="0.20"
       id="path232" />
    <path
       d="M 16.850 260.200 H 178.950 H 185.400 C 185.455 260.200 185.500 260.155 185.500 260.100 V 253.650 V 16.550 V 10.100 C 185.500 10.045 185.455 10.000 185.400 10.000 H 178.950 H 16.850 H 10.400 C 10.345 10.000 10.300 10.045 10.300 10.100 V 16.550 V 253.650 V 260.100 C 10.300 260.155 10.345 260.200 10.400 260.200 H 16.850 Z"
       stroke="rgb(0,0,0)"
       stroke-width="0.20"
       id="path234" />
    <path
       d="M 181.850 243.100 V 246.000 C 181.850 246.100 181.950 246.000 181.850 246.000 H 179.050 C 178.950 246.000 179.050 246.100 179.050 246.000 V 240.200 C 179.050 240.100 178.950 240.200 179.050 240.200 H 181.850 C 181.950 240.200 181.850 240.100 181.850 240.200 V 243.100 Z"
       stroke="rgb(0,0,255)"
       stroke-width="0.20"
       id="path236" />
    <path
       d="M 181.850 231.100 V 234.000 C 181.850 234.100 181.950 234.000 181.850 234.000 H 179.050 C 178.950 234.000 179.050 234.100 179.050 234.000 V 228.200 C 179.050 228.100 178.950 228.200 179.050 228.200 H 181.850 C 181.950 228.200 181.850 228.100 181.850 228.200 V 231.100 Z"
       stroke="rgb(0,0,255)"
       stroke-width="0.20"
       id="path238" />
    <path
       d="M 181.850 219.100 V 222.000 C 181.850 222.100 181.950 222.000 181.850 222.000 H 179.050 C 178.950 222.000 179.050 222.100 179.050 222.000 V 216.200 C 179.050 216.100 178.950 216.200 179.050 216.200 H 181.850 C 181.950 216.200 181.850 216.100 181.850 216.200 V 219.100 Z"
       stroke="rgb(0,0,255)"
       stroke-width="0.20"
       id="path240" />
    <path
       d="M 181.850 207.100 V 210.000 C 181.850 210.100 181.950 210.000 181.850 210.000 H 179.050 C 178.950 210.000 179.050 210.100 179.050 210.000 V 204.200 C 179.050 204.100 178.950 204.200 179.050 204.200 H 181.850 C 181.950 204.200 181.850 204.100 181.850 204.200 V 207.100 Z"
       stroke="rgb(0,0,255)"
       stroke-width="0.20"
       id="path242" />
    <path
       d="M 181.850 195.100 V 198.000 C 181.850 198.100 181.950 198.000 181.850 198.000 H 179.050 C 178.950 198.000 179.050 198.100 179.050 198.000 V 192.200 C 179.050 192.100 178.950 192.200 179.050 192.200 H 181.850 C 181.950 192.200 181.850 192.100 181.850 192.200 V 195.100 Z"
       stroke="rgb(0,0,255)"
       stroke-width="0.20"
       id="path244" />
    <path
       d="M 181.850 183.100 V 186.000 C 181.850 186.100 181.950 186.000 181.850 186.000 H 179.050 C 178.950 186.000 179.050 186.100 179.050 186.000 V 180.200 C 179.050 180.100 178.950 180.200 179.050 180.200 H 181.850 C 181.950 180.200 181.850 180.100 181.850 180.200 V 183.100 Z"
       stroke="rgb(0,0,255)"
       stroke-width="0.20"
       id="path246" />
    <path
       d="M 181.850 171.100 V 174.000 C 181.850 174.100 181.950 174.000 181.850 174.000 H 179.050 C 178.950 174.000 179.050 174.100 179.050 174.000 V 168.200 C 179.050 168.100 178.950 168.200 179.050 168.200 H 181.850 C 181.950 168.200 181.850 168.100 181.850 168.200 V 171.100 Z"
       stroke="rgb(0,0,255)"
       stroke-width="0.20"
       id="path248" />
    <path
       d="M 181.850 159.100 V 162.000 C 181.850 162.100 181.950 162.000 181.850 162.000 H 179.050 C 178.950 162.000 179.050 162.100 179.050 162.000 V 156.200 C 179.050 156.100 178.950 156.200 179.050 156.200 H 181.850 C 181.950 156.200 181.850 156.100 181.850 156.200 V 159.100 Z"
       stroke="rgb(0,0,255)"
       stroke-width="0.20"
       id="path250" />
    <path
       d="M 181.850 147.100 V 150.000 C 181.850 150.100 181.950 150.000 181.850 150.000 H 179.050 C 178.950 150.000 179.050 150.100 179.050 150.000 V 144.200 C 179.050 144.100 178.950 144.200 179.050 144.200 H 181.850 C 181.950 144.200 181.850 144.100 181.850 144.200 V 147.100 Z"
       stroke="rgb(0,0,255)"
       stroke-width="0.20"
       id="path252" />
    <path
       d="M 181.850 135.100 V 138.000 C 181.850 138.100 181.950 138.000 181.850 138.000 H 179.050 C 178.950 138.000 179.050 138.100 179.050 138.000 V 132.200 C 179.050 132.100 178.950 132.200 179.050 132.200 H 181.850 C 181.950 132.200 181.850 132.100 181.850 132.200 V 135.100 Z"
       stroke="rgb(0,0,255)"
       stroke-width="0.20"
       id="path254" />
    <path
       d="M 181.850 123.100 V 126.000 C 181.850 126.100 181.950 126.000 181.850 126.000 H 179.050 C 178.950 126.000 179.050 126.100 179.050 126.000 V 120.200 C 179.050 120.100 178.950 120.200 179.050 120.200 H 181.850 C 181.950 120.200 181.850 120.100 181.850 120.200 V 123.100 Z"
       stroke="rgb(0,0,255)"
       stroke-width="0.20"
       id="path256" />
    <path
       d="M 181.850 111.100 V 114.000 C 181.850 114.100 181.950 114.000 181.850 114.000 H 179.050 C 178.950 114.000 179.050 114.100 179.050 114.000 V 108.200 C 179.050 108.100 178.950 108.200 179.050 108.200 H 181.850 C 181.950 108.200 181.850 108.100 181.850 108.200 V 111.100 Z"
       stroke="rgb(0,0,255)"
       stroke-width="0.20"
       id="path258" />
    <path
       d="M 181.850 99.100 V 102.000 C 181.850 102.100 181.950 102.000 181.850 102.000 H 179.050 C 178.950 102.000 179.050 102.100 179.050 102.000 V 96.200 C 179.050 96.100 178.950 96.200 179.050 96.200 H 181.850 C 181.950 96.200 181.850 96.100 181.850 96.200 V 99.100 Z"
       stroke="rgb(0,0,255)"
       stroke-width="0.20"
       id="path260" />
    <path
       d="M 181.850 87.100 V 90.000 C 181.850 90.100 181.950 90.000 181.850 90.000 H 179.050 C 178.950 90.000 179.050 90.100 179.050 90.000 V 84.200 C 179.050 84.100 178.950 84.200 179.050 84.200 H 181.850 C 181.950 84.200 181.850 84.100 181.850 84.200 V 87.100 Z"
       stroke="rgb(0,0,255)"
       stroke-width="0.20"
       id="path262" />
    <path
       d="M 181.850 75.100 V 78.000 C 181.850 78.100 181.950 78.000 181.850 78.000 H 179.050 C 178.950 78.000 179.050 78.100 179.050 78.000 V 72.200 C 179.050 72.100 178.950 72.200 179.050 72.200 H 181.850 C 181.950 72.200 181.850 72.100 181.850 72.200 V 75.100 Z"
       stroke="rgb(0,0,255)"
       stroke-width="0.20"
       id="path264" />
    <path
       d="M 181.850 63.100 V 66.000 C 181.850 66.100 181.950 66.000 181.850 66.000 H 179.050 C 178.950 66.000 179.050 66.100 179.050 66.000 V 60.200 C 179.050 60.100 178.950 60.200 179.050 60.200 H 181.850 C 181.950 60.200 181.850 60.100 181.850 60.200 V 63.100 Z"
       stroke="rgb(0,0,255)"
       stroke-width="0.20"
       id="path266" />
    <path
       d="M 181.850 51.100 V 54.000 C 181.850 54.100 181.950 54.000 181.850 54.000 H 179.050 C 178.950 54.000 179.050 54.100 179.050 54.000 V 48.200 C 179.050 48.100 178.950 48.200 179.050 48.200 H 181.850 C 181.950 48.200 181.850 48.100 181.850 48.200 V 51.100 Z"
       stroke="rgb(0,0,255)"
       stroke-width="0.20"
       id="path268" />
    <path
       d="M 181.850 39.100 V 42.000 C 181.850 42.100 181.950 42.000 181.850 42.000 H 179.050 C 178.950 42.000 179.050 42.100 179.050 42.000 V 36.200 C 179.050 36.100 178.950 36.200 179.050 36.200 H 181.850 C 181.950 36.200 181.850 36.100 181.850 36.200 V 39.100 Z"
       stroke="rgb(0,0,255)"
       stroke-width="0.20"
       id="path270" />
    <path
       d="M 181.850 27.100 V 30.000 C 181.850 30.100 181.950 30.000 181.850 30.000 H 179.050 C 178.950 30.000 179.050 30.100 179.050 30.000 V 24.200 C 179.050 24.100 178.950 24.200 179.050 24.200 H 181.850 C 181.950 24.200 181.850 24.100 181.850 24.200 V 27.100 Z"
       stroke="rgb(0,0,255)"
       stroke-width="0.20"
       id="path272" />
    <path
       d="M 169.900 13.650 H 172.800 C 172.900 13.650 172.800 13.550 172.800 13.650 V 16.450 C 172.800 16.550 172.900 16.450 172.800 16.450 H 167.000 C 166.900 16.450 167.000 16.550 167.000 16.450 V 13.650 C 167.000 13.550 166.900 13.650 167.000 13.650 H 169.900 Z"
       stroke="rgb(0,0,255)"
       stroke-width="0.20"
       id="path274" />
    <path
       d="M 157.900 13.650 H 160.800 C 160.900 13.650 160.800 13.550 160.800 13.650 V 16.450 C 160.800 16.550 160.900 16.450 160.800 16.450 H 155.000 C 154.900 16.450 155.000 16.550 155.000 16.450 V 13.650 C 155.000 13.550 154.900 13.650 155.000 13.650 H 157.900 Z"
       stroke="rgb(0,0,255)"
       stroke-width="0.20"
       id="path276" />
    <path
       d="M 145.900 13.650 H 148.800 C 148.900 13.650 148.800 13.550 148.800 13.650 V 16.450 C 148.800 16.550 148.900 16.450 148.800 16.450 H 143.000 C 142.900 16.450 143.000 16.550 143.000 16.450 V 13.650 C 143.000 13.550 142.900 13.650 143.000 13.650 H 145.900 Z"
       stroke="rgb(0,0,255)"
       stroke-width="0.20"
       id="path278" />
    <path
       d="M 133.900 13.650 H 136.800 C 136.900 13.650 136.800 13.550 136.800 13.650 V 16.450 C 136.800 16.550 136.900 16.450 136.800 16.450 H 131.000 C 130.900 16.450 131.000 16.550 131.000 16.450 V 13.650 C 131.000 13.550 130.900 13.650 131.000 13.650 H 133.900 Z"
       stroke="rgb(0,0,255)"
       stroke-width="0.20"
       id="path280" />
    <path
       d="M 121.900 13.650 H 124.800 C 124.900 13.650 124.800 13.550 124.800 13.650 V 16.450 C 124.800 16.550 124.900 16.450 124.800 16.450 H 119.000 C 118.900 16.450 119.000 16.550 119.000 16.450 V 13.650 C 119.000 13.550 118.900 13.650 119.000 13.650 H 121.900 Z"
       stroke="rgb(0,0,255)"
       stroke-width="0.20"
       id="path282" />
    <path
       d="M 109.900 13.650 H 112.800 C 112.900 13.650 112.800 13.550 112.800 13.650 V 16.450 C 112.800 16.550 112.900 16.450 112.800 16.450 H 107.000 C 106.900 16.450 107.000 16.550 107.000 16.450 V 13.650 C 107.000 13.550 106.900 13.650 107.000 13.650 H 109.900 Z"
       stroke="rgb(0,0,255)"
       stroke-width="0.20"
       id="path284" />
    <path
       d="M 97.900 13.650 H 100.800 C 100.900 13.650 100.800 13.550 100.800 13.650 V 16.450 C 100.800 16.550 100.900 16.450 100.800 16.450 H 95.000 C 94.900 16.450 95.000 16.550 95.000 16.450 V 13.650 C 95.000 13.550 94.900 13.650 95.000 13.650 H 97.900 Z"
       stroke="rgb(0,0,255)"
       stroke-width="0.20"
       id="path286" />
    <path
       d="M 85.900 13.650 H 88.800 C 88.900 13.650 88.800 13.550 88.800 13.650 V 16.450 C 88.800 16.550 88.900 16.450 88.800 16.450 H 83.000 C 82.900 16.450 83.000 16.550 83.000 16.450 V 13.650 C 83.000 13.550 82.900 13.650 83.000 13.650 H 85.900 Z"
       stroke="rgb(0,0,255)"
       stroke-width="0.20"
       id="path288" />
    <path
       d="M 73.900 13.650 H 76.800 C 76.900 13.650 76.800 13.550 76.800 13.650 V 16.450 C 76.800 16.550 76.900 16.450 76.800 16.450 H 71.000 C 70.900 16.450 71.000 16.550 71.000 16.450 V 13.650 C 71.000 13.550 70.900 13.650 71.000 13.650 H 73.900 Z"
       stroke="rgb(0,0,255)"
       stroke-width="0.20"
       id="path290" />
    <path
       d="M 61.900 13.650 H 64.800 C 64.900 13.650 64.800 13.550 64.800 13.650 V 16.450 C 64.800 16.550 64.900 16.450 64.800 16.450 H 59.000 C 58.900 16.450 59.000 16.550 59.000 16.450 V 13.650 C 59.000 13.550 58.900 13.650 59.000 13.650 H 61.900 Z"
       stroke="rgb(0,0,255)"
       stroke-width="0.20"
       id="path292" />
    <path
       d="M 49.900 13.650 H 52.800 C 52.900 13.650 52.800 13.550 52.800 13.650 V 16.450 C 52.800 16.550 52.900 16.450 52.800 16.450 H 47.000 C 46.900 16.450 47.000 16.550 47.000 16.450 V 13.650 C 47.000 13.550 46.900 13.650 47.000 13.650 H 49.900 Z"
       stroke="rgb(0,0,255)"
       stroke-width="0.20"
       id="path294" />
    <path
       d="M 37.900 13.650 H 40.800 C 40.900 13.650 40.800 13.550 40.800 13.650 V 16.450 C 40.800 16.550 40.900 16.450 40.800 16.450 H 35.000 C 34.900 16.450 35.000 16.550 35.000 16.450 V 13.650 C 35.000 13.550 34.900 13.650 35.000 13.650 H 37.900 Z"
       stroke="rgb(0,0,255)"
       stroke-width="0.20"
       id="path296" />
    <path
       d="M 25.900 13.650 H 28.800 C 28.900 13.650 28.800 13.550 28.800 13.650 V 16.450 C 28.800 16.550 28.900 16.450 28.800 16.450 H 23.000 C 22.900 16.450 23.000 16.550 23.000 16.450 V 13.650 C 23.000 13.550 22.900 13.650 23.000 13.650 H 25.900 Z"
       stroke="rgb(0,0,255)"
       stroke-width="0.20"
       id="path298" />
    <path
       d="M 13.950 27.100 V 24.200 C 13.950 24.100 13.850 24.200 13.950 24.200 H 16.750 C 16.850 24.200 16.750 24.100 16.750 24.200 V 30.000 C 16.750 30.100 16.850 30.000 16.750 30.000 H 13.950 C 13.850 30.000 13.950 30.100 13.950 30.000 V 27.100 Z"
       stroke="rgb(0,0,255)"
       stroke-width="0.20"
       id="path300" />
    <path
       d="M 13.950 39.100 V 36.200 C 13.950 36.100 13.850 36.200 13.950 36.200 H 16.750 C 16.850 36.200 16.750 36.100 16.750 36.200 V 42.000 C 16.750 42.100 16.850 42.000 16.750 42.000 H 13.950 C 13.850 42.000 13.950 42.100 13.950 42.000 V 39.100 Z"
       stroke="rgb(0,0,255)"
       stroke-width="0.20"
       id="path302" />
    <path
       d="M 13.950 51.100 V 48.200 C 13.950 48.100 13.850 48.200 13.950 48.200 H 16.750 C 16.850 48.200 16.750 48.100 16.750 48.200 V 54.000 C 16.750 54.100 16.850 54.000 16.750 54.000 H 13.950 C 13.850 54.000 13.950 54.100 13.950 54.000 V 51.100 Z"
       stroke="rgb(0,0,255)"
       stroke-width="0.20"
       id="path304" />
    <path
       d="M 13.950 63.100 V 60.200 C 13.950 60.100 13.850 60.200 13.950 60.200 H 16.750 C 16.850 60.200 16.750 60.100 16.750 60.200 V 66.000 C 16.750 66.100 16.850 66.000 16.750 66.000 H 13.950 C 13.850 66.000 13.950 66.100 13.950 66.000 V 63.100 Z"
       stroke="rgb(0,0,255)"
       stroke-width="0.20"
       id="path306" />
    <path
       d="M 13.950 75.100 V 72.200 C 13.950 72.100 13.850 72.200 13.950 72.200 H 16.750 C 16.850 72.200 16.750 72.100 16.750 72.200 V 78.000 C 16.750 78.100 16.850 78.000 16.750 78.000 H 13.950 C 13.850 78.000 13.950 78.100 13.950 78.000 V 75.100 Z"
       stroke="rgb(0,0,255)"
       stroke-width="0.20"
       id="path308" />
    <path
       d="M 13.950 87.100 V 84.200 C 13.950 84.100 13.850 84.200 13.950 84.200 H 16.750 C 16.850 84.200 16.750 84.100 16.750 84.200 V 90.000 C 16.750 90.100 16.850 90.000 16.750 90.000 H 13.950 C 13.850 90.000 13.950 90.100 13.950 90.000 V 87.100 Z"
       stroke="rgb(0,0,255)"
       stroke-width="0.20"
       id="path310" />
    <path
       d="M 13.950 99.100 V 96.200 C 13.950 96.100 13.850 96.200 13.950 96.200 H 16.750 C 16.850 96.200 16.750 96.100 16.750 96.200 V 102.000 C 16.750 102.100 16.850 102.000 16.750 102.000 H 13.950 C 13.850 102.000 13.950 102.100 13.950 102.000 V 99.100 Z"
       stroke="rgb(0,0,255)"
       stroke-width="0.20"
       id="path312" />
    <path
       d="M 13.950 111.100 V 108.200 C 13.950 108.100 13.850 108.200 13.950 108.200 H 16.750 C 16.850 108.200 16.750 108.100 16.750 108.200 V 114.000 C 16.750 114.100 16.850 114.000 16.750 114.000 H 13.950 C 13.850 114.000 13.950 114.100 13.950 114.000 V 111.100 Z"
       stroke="rgb(0,0,255)"
       stroke-width="0.20"
       id="path314" />
    <path
       d="M 13.950 123.100 V 120.200 C 13.950 120.100 13.850 120.200 13.950 120.200 H 16.750 C 16.850 120.200 16.750 120.100 16.750 120.200 V 126.000 C 16.750 126.100 16.850 126.000 16.750 126.000 H 13.950 C 13.850 126.000 13.950 126.100 13.950 126.000 V 123.100 Z"
       stroke="rgb(0,0,255)"
       stroke-width="0.20"
       id="path316" />
    <path
       d="M 13.950 135.100 V 132.200 C 13.950 132.100 13.850 132.200 13.950 132.200 H 16.750 C 16.850 132.200 16.750 132.100 16.750 132.200 V 138.000 C 16.750 138.100 16.850 138.000 16.750 138.000 H 13.950 C 13.850 138.000 13.950 138.100 13.950 138.000 V 135.100 Z"
       stroke="rgb(0,0,255)"
       stroke-width="0.20"
       id="path318" />
    <path
       d="M 13.950 147.100 V 144.200 C 13.950 144.100 13.850 144.200 13.950 144.200 H 16.750 C 16.850 144.200 16.750 144.100 16.750 144.200 V 150.000 C 16.750 150.100 16.850 150.000 16.750 150.000 H 13.950 C 13.850 150.000 13.950 150.100 13.950 150.000 V 147.100 Z"
       stroke="rgb(0,0,255)"
       stroke-width="0.20"
       id="path320" />
    <path
       d="M 13.950 159.100 V 156.200 C 13.950 156.100 13.850 156.200 13.950 156.200 H 16.750 C 16.850 156.200 16.750 156.100 16.750 156.200 V 162.000 C 16.750 162.100 16.850 162.000 16.750 162.000 H 13.950 C 13.850 162.000 13.950 162.100 13.950 162.000 V 159.100 Z"
       stroke="rgb(0,0,255)"
       stroke-width="0.20"
       id="path322" />
    <path
       d="M 13.950 171.100 V 168.200 C 13.950 168.100 13.850 168.200 13.950 168.200 H 16.750 C 16.850 168.200 16.750 168.100 16.750 168.200 V 174.000 C 16.750 174.100 16.850 174.000 16.750 174.000 H 13.950 C 13.850 174.000 13.950 174.100 13.950 174.000 V 171.100 Z"
       stroke="rgb(0,0,255)"
       stroke-width="0.20"
       id="path324" />
    <path
       d="M 13.950 183.100 V 180.200 C 13.950 180.100 13.850 180.200 13.950 180.200 H 16.750 C 16.850 180.200 16.750 180.100 16.750 180.200 V 186.000 C 16.750 186.100 16.850 186.000 16.750 186.000 H 13.950 C 13.850 186.000 13.950 186.100 13.950 186.000 V 183.100 Z"
       stroke="rgb(0,0,255)"
       stroke-width="0.20"
       id="path326" />
    <path
       d="M 13.950 195.100 V 192.200 C 13.950 192.100 13.850 192.200 13.950 192.200 H 16.750 C 16.850 192.200 16.750 192.100 16.750 192.200 V 198.000 C 16.750 198.100 16.850 198.000 16.750 198.000 H 13.950 C 13.850 198.000 13.950 198.100 13.950 198.000 V 195.100 Z"
       stroke="rgb(0,0,255)"
       stroke-width="0.20"
       id="path328" />
    <path
       d="M 13.950 207.100 V 204.200 C 13.950 204.100 13.850 204.200 13.950 204.200 H 16.750 C 16.850 204.200 16.750 204.100 16.750 204.200 V 210.000 C 16.750 210.100 16.850 210.000 16.750 210.000 H 13.950 C 13.850 210.000 13.950 210.100 13.950 210.000 V 207.100 Z"
       stroke="rgb(0,0,255)"
       stroke-width="0.20"
       id="path330" />
    <path
       d="M 13.950 219.100 V 216.200 C 13.950 216.100 13.850 216.200 13.950 216.200 H 16.750 C 16.850 216.200 16.750 216.100 16.750 216.200 V 222.000 C 16.750 222.100 16.850 222.000 16.750 222.000 H 13.950 C 13.850 222.000 13.950 222.100 13.950 222.000 V 219.100 Z"
       stroke="rgb(0,0,255)"
       stroke-width="0.20"
       id="path332" />
    <path
       d="M 13.950 231.100 V 228.200 C 13.950 228.100 13.850 228.200 13.950 228.200 H 16.750 C 16.850 228.200 16.750 228.100 16.750 228.200 V 234.000 C 16.750 234.100 16.850 234.000 16.750 234.000 H 13.950 C 13.850 234.000 13.950 234.100 13.950 234.000 V 231.100 Z"
       stroke="rgb(0,0,255)"
       stroke-width="0.20"
       id="path334" />
    <path
       d="M 13.950 243.100 V 240.200 C 13.950 240.100 13.850 240.200 13.950 240.200 H 16.750 C 16.850 240.200 16.750 240.100 16.750 240.200 V 246.000 C 16.750 246.100 16.850 246.000 16.750 246.000 H 13.950 C 13.850 246.000 13.950 246.100 13.950 246.000 V 243.100 Z"
       stroke="rgb(0,0,255)"
       stroke-width="0.20"
       id="path336" />
  </g>
  <g
     id="p-10"
     style="fill:none;stroke-linecap:round;stroke-linejoin:round;">
    <path
       d="M 190.100 260.200 H 199.600 C 199.655 260.200 199.700 260.155 199.700 260.100 V 257.200 C 199.700 257.100 199.600 257.200 199.700 257.200 H 205.500 C 205.600 257.200 205.500 257.100 205.500 257.200 V 260.100 C 205.500 260.155 205.545 260.200 205.600 260.200 H 211.600 C 211.655 260.200 211.700 260.155 211.700 260.100 V 257.200 C 211.700 257.100 211.600 257.200 211.700 257.200 H 217.500 C 217.600 257.200 217.500 257.100 217.500 257.200 V 260.100 C 217.500 260.155 217.545 260.200 217.600 260.200 H 223.600 C 223.655 260.200 223.700 260.155 223.700 260.100 V 257.200 C 223.700 257.100 223.600 257.200 223.700 257.200 H 229.500 C 229.600 257.200 229.500 257.100 229.500 257.200 V 260.100 C 229.500 260.155 229.545 260.200 229.600 260.200 H 235.600 C 235.655 260.200 235.700 260.155 235.700 260.100 V 257.200 C 235.700 257.100 235.600 257.200 235.700 257.200 H 241.500 C 241.600 257.200 241.500 257.100 241.500 257.200 V 260.100 C 241.500 260.155 241.545 260.200 241.600 260.200 H 247.600 C 247.655 260.200 247.700 260.155 247.700 260.100 V 257.200 C 247.700 257.100 247.600 257.200 247.700 257.200 H 253.500 C 253.600 257.200 253.500 257.100 253.500 257.200 V 260.100 C 253.500 260.155 253.545 260.200 253.600 260.200 H 259.600 C 259.655 260.200 259.700 260.155 259.700 260.100 V 257.200 C 259.700 257.100 259.600 257.200 259.700 257.200 H 265.500 C 265.600 257.200 265.500 257.100 265.500 257.200 V 260.100 C 265.500 260.155 265.545 260.200 265.600 260.200 H 271.600 C 271.655 260.200 271.700 260.155 271.700 260.100 V 257.200 C 271.700 257.100 271.600 257.200 271.700 257.200 H 277.500 C 277.600 257.200 277.500 257.100 277.500 257.200 V 260.100 C 277.500 260.155 277.545 260.200 277.600 260.200 H 283.600 C 283.655 260.200 283.700 260.155 283.700 260.100 V 257.200 C 283.700 257.100 283.600 257.200 283.700 257.200 H 289.500 C 289.600 257.200 289.500 257.100 289.500 257.200 V 260.100 C 289.500 260.155 289.545 260.200 289.600 260.200 H 295.600 C 295.655 260.200 295.700 260.155 295.700 260.100 V 257.200 C 295.700 257.100 295.600 257.200 295.700 257.200 H 301.500 C 301.600 257.200 301.500 257.100 301.500 257.200 V 260.100 C 301.500 260.155 301.545 260.200 301.600 260.200 H 307.600 C 307.655 260.200 307.700 260.155 307.700 260.100 V 257.200 C 307.700 257.100 307.600 257.200 307.700 257.200 H 313.500 C 313.600 257.200 313.500 257.100 313.500 257.200 V 260.100 C 313.500 260.155 313.545 260.200 313.600 260.200 H 319.600 C 319.655 260.200 319.700 260.155 319.700 260.100 V 257.200 C 319.700 257.100 319.600 257.200 319.700 257.200 H 325.500 C 325.600 257.200 325.500 257.100 325.500 257.200 V 260.100 C 325.500 260.155 325.545 260.200 325.600 260.200 H 331.600 C 331.655 260.200 331.700 260.155 331.700 260.100 V 257.200 C 331.700 257.100 331.600 257.200 331.700 257.200 H 337.500 C 337.600 257.200 337.500 257.100 337.500 257.200 V 260.100 C 337.500 260.155 337.545 260.200 337.600 260.200 H 343.600 C 343.655 260.200 343.700 260.155 343.700 260.100 V 257.200 C 343.700 257.100 343.600 257.200 343.700 257.200 H 349.500 C 349.600 257.200 349.500 257.100 349.500 257.200 V 260.100 C 349.500 260.155 349.545 260.200 349.600 260.200 H 359.100 H 362.100 C 362.155 260.200 362.200 260.155 362.200 260.100 V 257.100 V 246.100 C 362.200 246.045 362.155 246.000 362.100 246.000 H 359.200 C 359.100 246.000 359.200 246.100 359.200 246.000 V 240.200 C 359.200 240.100 359.100 240.200 359.200 240.200 H 362.100 C 362.155 240.200 362.200 240.155 362.200 240.100 V 234.100 C 362.200 234.045 362.155 234.000 362.100 234.000 H 359.200 C 359.100 234.000 359.200 234.100 359.200 234.000 V 228.200 C 359.200 228.100 359.100 228.200 359.200 228.200 H 362.100 C 362.155 228.200 362.200 228.155 362.200 228.100 V 222.100 C 362.200 222.045 362.155 222.000 362.100 222.000 H 359.200 C 359.100 222.000 359.200 222.100 359.200 222.000 V 216.200 C 359.200 216.100 359.100 216.200 359.200 216.200 H 362.100 C 362.155 216.200 362.200 216.155 362.200 216.100 V 210.100 C 362.200 210.045 362.155 210.000 362.100 210.000 H 359.200 C 359.100 210.000 359.200 210.100 359.200 210.000 V 204.200 C 359.200 204.100 359.100 204.200 359.200 204.200 H 362.100 C 362.155 204.200 362.200 204.155 362.200 204.100 V 198.100 C 362.200 198.045 362.155 198.000 362.100 198.000 H 359.200 C 359.100 198.000 359.200 198.100 359.200 198.000 V 192.200 C 359.200 192.100 359.100 192.200 359.200 192.200 H 362.100 C 362.155 192.200 362.200 192.155 362.200 192.100 V 186.100 C 362.200 186.045 362.155 186.000 362.100 186.000 H 359.200 C 359.100 186.000 359.200 186.100 359.200 186.000 V 180.200 C 359.200 180.100 359.100 180.200 359.200 180.200 H 362.100 C 362.155 180.200 362.200 180.155 362.200 180.100 V 174.100 C 362.200 174.045 362.155 174.000 362.100 174.000 H 359.200 C 359.100 174.000 359.200 174.100 359.200 174.000 V 168.200 C 359.200 168.100 359.100 168.200 359.200 168.200 H 362.100 C 362.155 168.200 362.200 168.155 362.200 168.100 V 162.100 C 362.200 162.045 362.155 162.000 362.100 162.000 H 359.200 C 359.100 162.000 359.200 162.100 359.200 162.000 V 156.200 C 359.200 156.100 359.100 156.200 359.200 156.200 H 362.100 C 362.155 156.200 362.200 156.155 362.200 156.100 V 150.100 C 362.200 150.045 362.155 150.000 362.100 150.000 H 359.200 C 359.100 150.000 359.200 150.100 359.200 150.000 V 144.200 C 359.200 144.100 359.100 144.200 359.200 144.200 H 362.100 C 362.155 144.200 362.200 144.155 362.200 144.100 V 138.100 C 362.200 138.045 362.155 138.000 362.100 138.000 H 359.200 C 359.100 138.000 359.200 138.100 359.200 138.000 V 132.200 C 359.200 132.100 359.100 132.200 359.200 132.200 H 362.100 C 362.155 132.200 362.200 132.155 362.200 132.100 V 126.100 C 362.200 126.045 362.155 126.000 362.100 126.000 H 359.200 C 359.100 126.000 359.200 126.100 359.200 126.000 V 120.200 C 359.200 120.100 359.100 120.200 359.200 120.200 H 362.100 C 362.155 120.200 362.200 120.155 362.200 120.100 V 114.100 C 362.200 114.045 362.155 114.000 362.100 114.000 H 359.200 C 359.100 114.000 359.200 114.100 359.200 114.000 V 108.200 C 359.200 108.100 359.100 108.200 359.200 108.200 H 362.100 C 362.155 108.200 362.200 108.155 362.200 108.100 V 102.100 C 362.200 102.045 362.155 102.000 362.100 102.000 H 359.200 C 359.100 102.000 359.200 102.100 359.200 102.000 V 96.200 C 359.200 96.100 359.100 96.200 359.200 96.200 H 362.100 C 362.155 96.200 362.200 96.155 362.200 96.100 V 90.100 C 362.200 90.045 362.155 90.000 362.100 90.000 H 359.200 C 359.100 90.000 359.200 90.100 359.200 90.000 V 84.200 C 359.200 84.100 359.100 84.200 359.200 84.200 H 362.100 C 362.155 84.200 362.200 84.155 362.200 84.100 V 78.100 C 362.200 78.045 362.155 78.000 362.100 78.000 H 359.200 C 359.100 78.000 359.200 78.100 359.200 78.000 V 72.200 C 359.200 72.100 359.100 72.200 359.200 72.200 H 362.100 C 362.155 72.200 362.200 72.155 362.200 72.100 V 66.100 C 362.200 66.045 362.155 66.000 362.100 66.000 H 359.200 C 359.100 66.000 359.200 66.100 359.200 66.000 V 60.200 C 359.200 60.100 359.100 60.200 359.200 60.200 H 362.100 C 362.155 60.200 362.200 60.155 362.200 60.100 V 54.100 C 362.200 54.045 362.155 54.000 362.100 54.000 H 359.200 C 359.100 54.000 359.200 54.100 359.200 54.000 V 48.200 C 359.200 48.100 359.100 48.200 359.200 48.200 H 362.100 C 362.155 48.200 362.200 48.155 362.200 48.100 V 42.100 C 362.200 42.045 362.155 42.000 362.100 42.000 H 359.200 C 359.100 42.000 359.200 42.100 359.200 42.000 V 36.200 C 359.200 36.100 359.100 36.200 359.200 36.200 H 362.100 C 362.155 36.200 362.200 36.155 362.200 36.100 V 30.100 C 362.200 30.045 362.155 30.000 362.100 30.000 H 359.200 C 359.100 30.000 359.200 30.100 359.200 30.000 V 24.200 C 359.200 24.100 359.100 24.200 359.200 24.200 H 362.100 C 362.155 24.200 362.200 24.155 362.200 24.100 V 13.100 V 10.100 C 362.200 10.045 362.155 10.000 362.100 10.000 H 359.100 H 349.600 C 349.545 10.000 349.500 10.045 349.500 10.100 V 13.000 C 349.500 13.100 349.600 13.000 349.500 13.000 H 343.700 C 343.600 13.000 343.700 13.100 343.700 13.000 V 10.100 C 343.700 10.045 343.655 10.000 343.600 10.000 H 337.600 C 337.545 10.000 337.500 10.045 337.500 10.100 V 13.000 C 337.500 13.100 337.600 13.000 337.500 13.000 H 331.700 C 331.600 13.000 331.700 13.100 331.700 13.000 V 10.100 C 331.700 10.045 331.655 10.000 331.600 10.000 H 325.600 C 325.545 10.000 325.500 10.045 325.500 10.100 V 13.000 C 325.500 13.100 325.600 13.000 325.500 13.000 H 319.700 C 319.600 13.000 319.700 13.100 319.700 13.000 V 10.100 C 319.700 10.045 319.655 10.000 319.600 10.000 H 313.600 C 313.545 10.000 313.500 10.045 313.500 10.100 V 13.000 C 313.500 13.100 313.600 13.000 313.500 13.000 H 307.700 C 307.600 13.000 307.700 13.100 307.700 13.000 V 10.100 C 307.700 10.045 307.655 10.000 307.600 10.000 H 301.600 C 301.545 10.000 301.500 10.045 301.500 10.100 V 13.000 C 301.500 13.100 301.600 13.000 301.500 13.000 H 295.700 C 295.600 13.000 295.700 13.100 295.700 13.000 V 10.100 C 295.700 10.045 295.655 10.000 295.600 10.000 H 289.600 C 289.545 10.000 289.500 10.045 289.500 10.100 V 13.000 C 289.500 13.100 289.600 13.000 289.500 13.000 H 283.700 C 283.600 13.000 283.700 13.100 283.700 13.000 V 10.100 C 283.700 10.045 283.655 10.000 283.600 10.000 H 277.600 C 277.545 10.000 277.500 10.045 277.500 10.100 V 13.000 C 277.500 13.100 277.600 13.000 277.500 13.000 H 271.700 C 271.600 13.000 271.700 13.100 271.700 13.000 V 10.100 C 271.700 10.045 271.655 10.000 271.600 10.000 H 265.600 C 265.545 10.000 265.500 10.045 265.500 10.100 V 13.000 C 265.500 13.100 265.600 13.000 265.500 13.000 H 259.700 C 259.600 13.000 259.700 13.100 259.700 13.000 V 10.100 C 259.700 10.045 259.655 10.000 259.600 10.000 H 253.600 C 253.545 10.000 253.500 10.045 253.500 10.100 V 13.000 C 253.500 13.100 253.600 13.000 253.500 13.000 H 247.700 C 247.600 13.000 247.700 13.100 247.700 13.000 V 10.100 C 247.700 10.045 247.655 10.000 247.600 10.000 H 241.600 C 241.545 10.000 241.500 10.045 241.500 10.100 V 13.000 C 241.500 13.100 241.600 13.000 241.500 13.000 H 235.700 C 235.600 13.000 235.700 13.100 235.700 13.000 V 10.100 C 235.700 10.045 235.655 10.000 235.600 10.000 H 229.600 C 229.545 10.000 229.500 10.045 229.500 10.100 V 13.000 C 229.500 13.100 229.600 13.000 229.500 13.000 H 223.700 C 223.600 13.000 223.700 13.100 223.700 13.000 V 10.100 C 223.700 10.045 223.655 10.000 223.600 10.000 H 217.600 C 217.545 10.000 217.500 10.045 217.500 10.100 V 13.000 C 217.500 13.100 217.600 13.000 217.500 13.000 H 211.700 C 211.600 13.000 211.700 13.100 211.700 13.000 V 10.100 C 211.700 10.045 211.655 10.000 211.600 10.000 H 205.600 C 205.545 10.000 205.500 10.045 205.500 10.100 V 13.000 C 205.500 13.100 205.600 13.000 205.500 13.000 H 199.700 C 199.600 13.000 199.700 13.100 199.700 13.000 V 10.100 C 199.700 10.045 199.655 10.000 199.600 10.000 H 190.100 H 187.100 C 187.045 10.000 187.000 10.045 187.000 10.100 V 13.100 V 24.100 C 187.000 24.155 187.045 24.200 187.100 24.200 H 190.000 C 190.100 24.200 190.000 24.100 190.000 24.200 V 30.000 C 190.000 30.100 190.100 30.000 190.000 30.000 H 187.100 C 187.045 30.000 187.000 30.045 187.000 30.100 V 36.100 C 187.000 36.155 187.045 36.200 187.100 36.200 H 190.000 C 190.100 36.200 190.000 36.100 190.000 36.200 V 42.000 C 190.000 42.100 190.100 42.000 190.000 42.000 H 187.100 C 187.045 42.000 187.000 42.045 187.000 42.100 V 48.100 C 187.000 48.155 187.045 48.200 187.100 48.200 H 190.000 C 190.100 48.200 190.000 48.100 190.000 48.200 V 54.000 C 190.000 54.100 190.100 54.000 190.000 54.000 H 187.100 C 187.045 54.000 187.000 54.045 187.000 54.100 V 60.100 C 187.000 60.155 187.045 60.200 187.100 60.200 H 190.000 C 190.100 60.200 190.000 60.100 190.000 60.200 V 66.000 C 190.000 66.100 190.100 66.000 190.000 66.000 H 187.100 C 187.045 66.000 187.000 66.045 187.000 66.100 V 72.100 C 187.000 72.155 187.045 72.200 187.100 72.200 H 190.000 C 190.100 72.200 190.000 72.100 190.000 72.200 V 78.000 C 190.000 78.100 190.100 78.000 190.000 78.000 H 187.100 C 187.045 78.000 187.000 78.045 187.000 78.100 V 84.100 C 187.000 84.155 187.045 84.200 187.100 84.200 H 190.000 C 190.100 84.200 190.000 84.100 190.000 84.200 V 90.000 C 190.000 90.100 190.100 90.000 190.000 90.000 H 187.100 C 187.045 90.000 187.000 90.045 187.000 90.100 V 96.100 C 187.000 96.155 187.045 96.200 187.100 96.200 H 190.000 C 190.100 96.200 190.000 96.100 190.000 96.200 V 102.000 C 190.000 102.100 190.100 102.000 190.000 102.000 H 187.100 C 187.045 102.000 187.000 102.045 187.000 102.100 V 108.100 C 187.000 108.155 187.045 108.200 187.100 108.200 H 190.000 C 190.100 108.200 190.000 108.100 190.000 108.200 V 114.000 C 190.000 114.100 190.100 114.000 190.000 114.000 H 187.100 C 187.045 114.000 187.000 114.045 187.000 114.100 V 120.100 C 187.000 120.155 187.045 120.200 187.100 120.200 H 190.000 C 190.100 120.200 190.000 120.100 190.000 120.200 V 126.000 C 190.000 126.100 190.100 126.000 190.000 126.000 H 187.100 C 187.045 126.000 187.000 126.045 187.000 126.100 V 132.100 C 187.000 132.155 187.045 132.200 187.100 132.200 H 190.000 C 190.100 132.200 190.000 132.100 190.000 132.200 V 138.000 C 190.000 138.100 190.100 138.000 190.000 138.000 H 187.100 C 187.045 138.000 187.000 138.045 187.000 138.100 V 144.100 C 187.000 144.155 187.045 144.200 187.100 144.200 H 190.000 C 190.100 144.200 190.000 144.100 190.000 144.200 V 150.000 C 190.000 150.100 190.100 150.000 190.000 150.000 H 187.100 C 187.045 150.000 187.000 150.045 187.000 150.100 V 156.100 C 187.000 156.155 187.045 156.200 187.100 156.200 H 190.000 C 190.100 156.200 190.000 156.100 190.000 156.200 V 162.000 C 190.000 162.100 190.100 162.000 190.000 162.000 H 187.100 C 187.045 162.000 187.000 162.045 187.000 162.100 V 168.100 C 187.000 168.155 187.045 168.200 187.100 168.200 H 190.000 C 190.100 168.200 190.000 168.100 190.000 168.200 V 174.000 C 190.000 174.100 190.100 174.000 190.000 174.000 H 187.100 C 187.045 174.000 187.000 174.045 187.000 174.100 V 180.100 C 187.000 180.155 187.045 180.200 187.100 180.200 H 190.000 C 190.100 180.200 190.000 180.100 190.000 180.200 V 186.000 C 190.000 186.100 190.100 186.000 190.000 186.000 H 187.100 C 187.045 186.000 187.000 186.045 187.000 186.100 V 192.100 C 187.000 192.155 187.045 192.200 187.100 192.200 H 190.000 C 190.100 192.200 190.000 192.100 190.000 192.200 V 198.000 C 190.000 198.100 190.100 198.000 190.000 198.000 H 187.100 C 187.045 198.000 187.000 198.045 187.000 198.100 V 204.100 C 187.000 204.155 187.045 204.200 187.100 204.200 H 190.000 C 190.100 204.200 190.000 204.100 190.000 204.200 V 210.000 C 190.000 210.100 190.100 210.000 190.000 210.000 H 187.100 C 187.045 210.000 187.000 210.045 187.000 210.100 V 216.100 C 187.000 216.155 187.045 216.200 187.100 216.200 H 190.000 C 190.100 216.200 190.000 216.100 190.000 216.200 V 222.000 C 190.000 222.100 190.100 222.000 190.000 222.000 H 187.100 C 187.045 222.000 187.000 222.045 187.000 222.100 V 228.100 C 187.000 228.155 187.045 228.200 187.100 228.200 H 190.000 C 190.100 228.200 190.000 228.100 190.000 228.200 V 234.000 C 190.000 234.100 190.100 234.000 190.000 234.000 H 187.100 C 187.045 234.000 187.000 234.045 187.000 234.100 V 240.100 C 187.000 240.155 187.045 240.200 187.100 240.200 H 190.000 C 190.100 240.200 190.000 240.100 190.000 240.200 V 246.000 C 190.000 246.100 190.100 246.000 190.000 246.000 H 187.100 C 187.045 246.000 187.000 246.045 187.000 246.100 V 257.100 V 260.100 C 187.000 260.155 187.045 260.200 187.100 260.200 H 190.100 Z"
       stroke="rgb(0,0,0)"
       stroke-width="0.20"
       id="path339" />
  </g>
  <ellipse
     style="fill:#00ff00;stroke-width:0.0828609;image-rendering:auto"
     id="path683-1"
     cx="220.67477"
     cy="65.259422"
     rx="3.7747662"
     ry="3.3079169" />
  <ellipse
     style="fill:#00ff00;stroke-width:0.0828609;image-rendering:auto"
     id="path683-1-4"
     cx="220.67477"
     cy="207.02728"
     rx="3.7747662"
     ry="3.3079169" />
  <ellipse
     style="fill:#00ff00;stroke-width:0.0828609;image-rendering:auto"
     id="path683-1-1"
     cx="328.52524"
     cy="207.02728"
     rx="3.7747662"
     ry="3.3079169" />
  <ellipse
     style="fill:#00ff00;stroke-width:0.0828609;image-rendering:auto"
     id="path683-1-9"
     cx="328.52524"
     cy="65.259422"
     rx="3.7747662"
     ry="3.3079169" />
  <ellipse
     style="fill:#00ff00;stroke-width:0.414303;image-rendering:auto"
     id="path683-1-13"
     cx="270.82526"
     cy="133.11897"
     rx="18.873833"
     ry="16.539583" />
</svg>
